<svg width="84" height="95" viewBox="0 0 84 95" fill="none" xmlns="http://www.w3.org/2000/svg">
<path d="M49.0004 45.76C46.8304 46.32 44.5504 46.61 42.2004 46.61C39.8504 46.61 37.5804 46.31 35.4004 45.76V90.83H48.9904V45.76H49.0004Z" fill="#F7DFDF"/>
<path d="M31.33 90.83V44.3699C21.58 40.1399 14.7499 30.41 14.7499 19.11C14.7499 17.11 14.9699 15.13 15.3899 13.2H13.3399C12.6499 13.33 8.75995 14.21 6.60995 17.69C4.58995 20.96 4.55995 25.63 6.50995 31.59C13.41 52.63 12.7299 61.0499 10.9399 74.1299C10.1299 80.0099 11.0799 84.85 13.5899 87.74C15.3799 89.8 17.9199 90.85 21.1399 90.85H31.33V90.83Z" fill="#D4ECDA"/>
<path d="M13.6499 76.8399C15.4399 63.7599 16.12 55.3399 9.21995 34.2999C7.26995 28.3499 7.29995 23.6699 9.31995 20.3999C10.8899 17.8499 13.3999 16.6999 14.8999 16.2099C15.0099 15.1899 15.1699 14.1799 15.3899 13.1799H13.3399C12.6499 13.3099 8.75995 14.1899 6.60995 17.6699C4.58995 20.9399 4.55995 25.6099 6.50995 31.5699C13.41 52.6099 12.7299 61.0299 10.9399 74.1099C10.1299 79.9899 11.0799 84.8299 13.5899 87.7199C14.1499 88.3699 14.7899 88.9099 15.4999 89.3599C13.5999 86.4199 12.9399 82.0399 13.6499 76.8399Z" fill="white"/>
<path d="M77.7903 17.6799C75.6503 14.2099 71.7703 13.3299 71.0603 13.1899H69.0103C69.4303 15.1199 69.6503 17.0999 69.6503 19.0999C69.6503 30.3999 62.8103 40.1399 53.0703 44.3599V90.8199H63.2603C66.4803 90.8199 69.0203 89.7799 70.8103 87.7099C73.3303 84.8199 74.2703 79.9899 73.4603 74.0999C71.6703 61.0199 70.9903 52.5999 77.8903 31.5599C79.8403 25.6099 79.8103 20.9299 77.7903 17.6599V17.6799Z" fill="#D4ECDA"/>
<path d="M71.0602 15.9099C71.7702 16.0399 75.6503 16.9299 77.7903 20.3999C78.6203 21.7399 79.1102 23.3299 79.2702 25.1499C79.5002 22.1599 79.0203 19.6599 77.7903 17.6799C75.6503 14.2099 71.7702 13.3299 71.0602 13.1899H69.0103C69.2103 14.0899 69.3603 14.9999 69.4603 15.9099H71.0503H71.0602Z" fill="white"/>
<path d="M19.5801 13.1899C19.0801 15.1099 18.8301 17.0899 18.8301 19.0999C18.8301 32.0199 29.3201 42.5299 42.2101 42.5299C55.1001 42.5299 65.5901 32.0199 65.5901 19.0999C65.5901 17.0899 65.3301 15.1099 64.8401 13.1899H60.3401C60.9501 15.0499 61.2801 17.0399 61.2801 19.0999C61.2801 29.6299 52.7301 38.1999 42.2201 38.1999C31.7101 38.1999 23.1601 29.6299 23.1601 19.0999C23.1601 17.0399 23.4901 15.0499 24.1001 13.1899H19.6001H19.5801Z" fill="#F7DFDF"/>
<path d="M27.3604 17.06H30.6604C31.7804 17.06 32.7004 17.97 32.7004 19.1C32.7004 20.23 31.7904 21.14 30.6604 21.14H27.3604C28.3604 28.46 34.6304 34.12 42.2004 34.12C49.7704 34.12 56.0404 28.46 57.0404 21.14H53.7404C52.6204 21.14 51.7004 20.23 51.7004 19.1C51.7004 17.97 52.6104 17.06 53.7404 17.06H57.0404C56.1304 10.41 50.8704 5.12998 44.2404 4.22998V7.53998C44.2404 8.66998 43.3304 9.57998 42.2004 9.57998C41.0704 9.57998 40.1604 8.66998 40.1604 7.53998V4.22998C33.5304 5.13998 28.2604 10.41 27.3604 17.06ZM41.0504 17.41C41.9804 16.78 43.2504 17.02 43.8804 17.95C44.5104 18.88 44.2704 20.15 43.3404 20.79L34.5103 26.82C34.1603 27.06 33.7603 27.17 33.3703 27.17C32.7203 27.17 32.0804 26.86 31.6804 26.28C31.0504 25.35 31.2904 24.08 32.2204 23.44L41.0504 17.41Z" fill="#D4ECDA"/>
<path d="M29.6704 21.1399H27.3604C27.9004 25.1299 30.0204 28.6299 33.0604 30.9899C31.5004 28.9599 29.7504 25.2599 29.6704 21.1399Z" fill="white"/>
<path d="M30.7104 17.06C32.2004 12.6 35.7204 9.07997 40.1604 7.57997C40.1604 7.55997 40.1604 7.53997 40.1604 7.52997V4.21997C33.5304 5.12997 28.2604 10.4 27.3604 17.05H30.6604C30.6604 17.05 30.7004 17.05 30.7104 17.05V17.06Z" fill="white"/>
<path d="M31.6901 26.2801C32.0801 26.8601 32.7201 27.1701 33.3801 27.1701C33.7701 27.1701 34.1701 27.0601 34.5201 26.8201L43.3501 20.7901C44.2801 20.1601 44.5201 18.8901 43.8901 17.9501C43.2601 17.0201 41.9901 16.7801 41.0601 17.4101L32.2301 23.4401C31.3001 24.0701 31.0601 25.3401 31.6901 26.2801Z" fill="black"/>
<path d="M23.4203 15.9099C23.5803 14.9799 23.8003 14.0699 24.0903 13.1899H19.5903C19.3603 14.0899 19.1803 14.9899 19.0503 15.9099H23.4203Z" fill="white"/>
<path d="M64.8203 13.1899H60.3203C60.6103 14.0699 60.8303 14.9799 60.9903 15.9099H65.3603C65.2303 14.9899 65.0603 14.0799 64.8203 13.1899Z" fill="white"/>
<path d="M81.2202 15.47C77.8202 10.04 71.7602 9.16 71.5002 9.12C71.4102 9.11 58.4302 9.1 58.4302 9.1C55.0702 3.65 49.0602 0 42.2002 0C35.3402 0 29.3302 3.65 25.9702 9.11C25.9702 9.11 12.9902 9.15 12.9002 9.13C12.5602 9.04 6.58017 10.04 3.18017 15.48C0.460172 19.83 0.280172 25.67 2.64017 32.86C9.58017 54.03 8.51017 61.8 6.90017 73.57C5.93017 80.64 7.22017 86.62 10.5202 90.42C13.0802 93.37 16.7602 94.92 21.1402 94.92H63.2602C67.6402 94.92 71.3202 93.36 73.8802 90.42C77.1802 86.63 78.4702 80.64 77.5002 73.57C75.8902 61.8 74.8202 54.02 81.7602 32.86C84.1202 25.68 83.9302 19.83 81.2202 15.48V15.47ZM30.6602 17.06H27.3602C28.2702 10.41 33.5302 5.13 40.1602 4.23V7.54C40.1602 8.67 41.0702 9.58 42.2002 9.58C43.3302 9.58 44.2402 8.67 44.2402 7.54V4.23C50.8702 5.14 56.1402 10.41 57.0402 17.06H53.7402C52.6202 17.06 51.7002 17.97 51.7002 19.1C51.7002 20.23 52.6102 21.14 53.7402 21.14H57.0402C56.0402 28.46 49.7702 34.12 42.2002 34.12C34.6302 34.12 28.3602 28.46 27.3602 21.14H30.6602C31.7802 21.14 32.7002 20.23 32.7002 19.1C32.7002 17.97 31.7902 17.06 30.6602 17.06ZM19.0402 15.91C19.1702 14.99 19.3402 14.08 19.5802 13.19H24.0802C23.7902 14.07 23.5702 14.98 23.4102 15.91C23.2302 16.95 23.1402 18.01 23.1402 19.1C23.1402 29.63 31.6902 38.2 42.2002 38.2C52.7102 38.2 61.2602 29.63 61.2602 19.1C61.2602 18.01 61.1702 16.95 60.9902 15.91C60.8302 14.98 60.6102 14.07 60.3202 13.19H64.8202C65.0502 14.09 65.2302 14.99 65.3602 15.91C65.5002 16.96 65.5802 18.03 65.5802 19.1C65.5802 32.02 55.0902 42.53 42.2002 42.53C29.3102 42.53 18.8202 32.02 18.8202 19.1C18.8202 18.03 18.9002 16.96 19.0402 15.91ZM31.3302 90.83H21.1402C17.9202 90.83 15.3802 89.79 13.5902 87.72C11.0702 84.83 10.1302 80 10.9402 74.11C12.7302 61.03 13.4102 52.61 6.51017 31.57C4.56017 25.62 4.59017 20.94 6.61017 17.67C8.76017 14.19 12.6502 13.31 13.3402 13.18H15.3902C14.9702 15.11 14.7502 17.09 14.7502 19.09C14.7502 30.39 21.5902 40.13 31.3302 44.35V90.81V90.83ZM48.9902 90.83H35.4002V45.76C37.5702 46.32 39.8502 46.61 42.2002 46.61C44.5502 46.61 46.8202 46.31 49.0002 45.76V90.83H48.9902ZM77.8902 31.58C70.9902 52.62 71.6702 61.04 73.4602 74.12C74.2702 80 73.3202 84.84 70.8102 87.73C69.0202 89.79 66.4802 90.84 63.2602 90.84H53.0702V44.38C62.8202 40.15 69.6502 30.42 69.6502 19.12C69.6502 17.12 69.4302 15.14 69.0102 13.21H71.0602C71.7702 13.34 75.6502 14.23 77.7902 17.7C79.8102 20.97 79.8402 25.64 77.8902 31.6V31.58Z" fill="#BC9D82"/>
<path d="M54.0602 9.93998C51.7102 6.88998 48.2202 4.76998 44.2402 4.22998V6.67998C48.5102 6.51998 52.6002 8.80998 54.0602 9.93998Z" fill="white"/>
</svg>
