<svg width="73" height="106" viewBox="0 0 73 106" fill="none" xmlns="http://www.w3.org/2000/svg">
<path d="M5.76977 67.98L2.75977 100.87L7.42977 105.03L31.0798 105.2L38.6098 97.77L32.8898 67.98H5.76977Z" fill="white"/>
<path d="M45.5802 50.3101L44.9902 97.6101C44.9902 99.1401 47.2602 100.87 50.5102 100.87C53.7602 100.87 56.0302 99.1401 56.0302 97.5801L55.4402 50.3H45.6002L45.5802 50.3101Z" fill="#F7DFDF"/>
<path d="M47.7102 97.6101L48.3002 50.3101H45.5802L44.9902 97.6101C44.9902 99.1401 47.2602 100.87 50.5102 100.87C50.9902 100.87 51.4402 100.83 51.8702 100.76C49.3702 100.36 47.7102 98.9101 47.7102 97.6101Z" fill="white"/>
<path d="M45.6901 41.99L45.6401 46.22H55.3801L55.3201 41.99H45.6901Z" fill="#F7DFDF"/>
<path d="M45.6901 41.99L45.6401 46.22H48.0801L48.1301 41.99H45.6901Z" fill="white"/>
<path d="M63.2598 7.68008C60.1198 5.48008 55.7198 4.20008 50.8498 4.08008H50.1498C45.2898 4.20008 40.8798 5.47008 37.7398 7.68008C35.5898 9.19008 33.0298 11.8601 33.0298 16.0001C33.0298 25.9701 41.9598 36.2501 44.2598 37.8301L41.2698 30.8501C40.8298 29.8101 41.3098 28.6101 42.3398 28.1701C43.3698 27.7301 44.5698 28.2101 45.0098 29.2401C45.0098 29.2401 48.6998 37.8701 48.7098 37.9101H52.2698L55.9698 29.2401C56.4098 28.2001 57.6098 27.7201 58.6398 28.1701C59.6698 28.6101 60.1498 29.8101 59.7098 30.8501L56.7198 37.8301C59.0198 36.2501 67.9498 25.9701 67.9498 16.0001C67.9498 11.8501 65.3898 9.19008 63.2398 7.68008H63.2598Z" fill="#D4ECDA"/>
<path d="M35.7498 18.7201C35.7498 14.5701 38.3098 11.9101 40.4598 10.4001C43.5998 8.20008 47.9998 6.92008 52.8698 6.80008H53.5698C58.4298 6.92008 62.8398 8.19008 65.9798 10.4001C66.0698 10.4601 66.1498 10.5301 66.2398 10.5901C65.3598 9.34008 64.2698 8.38008 63.2598 7.68008C60.1198 5.48008 55.7198 4.20008 50.8498 4.08008H50.1498C45.2898 4.20008 40.8798 5.47008 37.7398 7.68008C35.5898 9.19008 33.0298 11.8601 33.0298 16.0001C33.0298 25.8101 41.6698 35.9101 44.1398 37.7401C40.6598 33.6801 35.7498 26.1201 35.7498 18.7201Z" fill="white"/>
<path d="M65.6002 4.33C61.8002 1.67 56.5902 0.13 50.9302 0C50.9102 0 50.1002 0 50.0902 0C44.4202 0.13 39.2102 1.67 35.4202 4.33C31.2602 7.25 28.9702 11.39 28.9702 16C28.9702 23.18 32.8502 30.04 35.1602 33.49C36.6102 35.65 38.2602 37.71 39.8002 39.28C40.5202 40.01 41.1202 40.55 41.6302 40.94L40.9202 97.58C40.9202 101.71 45.1302 104.95 50.5102 104.95C55.8902 104.95 60.1002 101.71 60.1002 97.55L59.3902 40.93C59.9002 40.54 60.5102 40 61.2202 39.27C62.7602 37.7 64.4102 35.64 65.8602 33.48C68.1702 30.03 72.0502 23.17 72.0502 15.99C72.0502 11.38 69.7602 7.24 65.6002 4.32V4.33ZM50.5102 100.87C47.2602 100.87 44.9902 99.14 44.9902 97.61L45.5802 50.31H55.4202L56.0102 97.59C56.0102 99.15 53.7402 100.88 50.4902 100.88L50.5102 100.87ZM45.6402 46.22L45.6902 41.99H55.3202L55.3702 46.22H45.6302H45.6402ZM56.7502 37.83L59.7402 30.85C60.1802 29.81 59.7002 28.61 58.6702 28.17C57.6402 27.73 56.4402 28.21 56.0002 29.24C56.0002 29.24 52.3102 37.87 52.3002 37.91H48.7402L45.0402 29.24C44.6002 28.2 43.4002 27.72 42.3702 28.17C41.3402 28.61 40.8602 29.81 41.3002 30.85L44.2902 37.83C41.9902 36.25 33.0602 25.97 33.0602 16C33.0602 11.85 35.6202 9.19 37.7702 7.68C40.9102 5.48 45.3102 4.2 50.1802 4.08H50.8802C55.7402 4.2 60.1502 5.47 63.2902 7.68C65.4402 9.19 68.0002 11.86 68.0002 16C68.0002 25.97 59.0702 36.25 56.7702 37.83H56.7502Z" fill="#BC9D82"/>
<path d="M7.4302 105.03L31.0802 105.19C35.2102 105.22 38.5902 101.89 38.6202 97.7601C38.6202 97.6801 38.6202 97.6001 38.6002 97.5201L30.5402 45.0001C30.4102 44.1601 29.6302 43.6001 28.7902 43.7201C27.9502 43.8501 27.3802 44.6301 27.5102 45.4701L35.5502 97.8501C35.4702 100.23 33.5002 102.14 31.1002 102.12L7.4502 101.95C5.0502 101.93 3.1102 100 3.0602 97.6201L11.8402 45.3501C11.8502 45.2701 11.8602 45.1901 11.8602 45.1101C11.8702 43.4301 12.8302 41.9901 14.2202 41.2601L25.1702 41.3401C25.1702 41.3401 25.2202 41.3401 25.2502 41.3401C25.9702 41.6001 26.7802 41.3001 27.1402 40.6101C27.5202 39.8801 27.2502 39.0001 26.5502 38.5901L24.9602 28.7001C24.8402 27.9601 24.2002 27.4201 23.4602 27.4101L16.1002 27.3601C15.3502 27.3601 14.7102 27.8901 14.5802 28.6301L12.8502 38.5201C10.5002 39.7401 8.8802 42.1601 8.8102 44.9801L0.0202011 97.2501C0.0102011 97.3301 0.000201121 97.4101 0.000201121 97.4901C-0.0297989 101.62 3.3002 105 7.4302 105.03ZM17.3802 30.4301L22.1402 30.4601L23.3102 37.7301C23.2502 37.7301 23.1902 37.7201 23.1302 37.7201L16.3502 37.6701C16.2702 37.6701 16.2002 37.6701 16.1202 37.6701L17.3902 30.4201L17.3802 30.4301Z" fill="#BC9D82"/>
<path d="M10.7301 64.03L5.79014 93.49C5.78014 93.57 5.77014 93.65 5.77014 93.73C5.75014 96.8 8.23014 99.31 11.2901 99.33L27.2901 99.44C30.3501 99.46 32.8701 96.98 32.8901 93.92C32.8901 93.07 32.2101 92.38 31.3701 92.38C30.5201 92.38 29.8301 93.06 29.8301 93.9C29.8301 95.28 28.6901 96.39 27.3201 96.38L11.3201 96.27C9.98014 96.27 8.90014 95.19 8.85014 93.86L13.7701 64.53C13.9101 63.7 13.3501 62.91 12.5101 62.77C12.4301 62.75 12.3501 62.75 12.2701 62.75C11.5301 62.75 10.8701 63.28 10.7501 64.03H10.7301Z" fill="#F7DFDF"/>
<path d="M13.1898 58.67C14.0198 58.81 14.8198 58.25 14.9598 57.41L15.8698 52C16.0098 51.16 15.4498 50.37 14.6098 50.23C14.5298 50.22 14.4498 50.21 14.3598 50.21C13.6198 50.21 12.9698 50.74 12.8398 51.49L11.9298 56.9C11.7898 57.73 12.3598 58.53 13.1898 58.67Z" fill="#F7DFDF"/>
</svg>
