<svg width="93" height="71" viewBox="0 0 93 71" fill="none" xmlns="http://www.w3.org/2000/svg">
<path d="M11.4102 57.8299C11.4102 57.8299 32.8702 32.3599 61.1002 55.1999C61.1002 55.1999 42.4802 81.6099 11.4102 57.8299Z" fill="white"/>
<path d="M36.1799 46.8301C30.9499 46.8301 26.6899 51.1001 26.6899 56.3501C26.6899 61.6001 30.9499 65.8701 36.1799 65.8701C41.4099 65.8701 45.6699 61.6001 45.6699 56.3501C45.6699 51.1001 41.4099 46.8301 36.1799 46.8301ZM36.1799 62.9501C32.5499 62.9501 29.5899 59.9901 29.5899 56.3401C29.5899 52.6901 32.5499 49.7301 36.1799 49.7301C39.8099 49.7301 42.7699 52.6901 42.7699 56.3401C42.7699 59.9901 39.8099 62.9501 36.1799 62.9501Z" fill="#D4ECDA"/>
<path d="M30.7499 60.0901C30.0199 59.0201 29.5799 57.7301 29.5799 56.3401C29.5799 54.9501 30.0099 53.6601 30.7499 52.5901C31.9899 49.6901 34.6399 47.5301 37.8299 46.9701C37.2899 46.8801 36.7399 46.8201 36.1799 46.8201C30.9499 46.8201 26.6899 51.0901 26.6899 56.3401C26.6899 61.5901 30.9499 65.8601 36.1799 65.8601C36.7399 65.8601 37.2899 65.8101 37.8299 65.7101C34.6399 65.1501 31.9999 62.9901 30.7499 60.0901Z" fill="white"/>
<path d="M36.1802 53.8201C34.7902 53.8201 33.6602 54.9501 33.6602 56.3401C33.6602 57.7301 34.7902 58.8601 36.1802 58.8601C37.5702 58.8601 38.7002 57.7301 38.7002 56.3401C38.7002 54.9501 37.5702 53.8201 36.1802 53.8201Z" fill="black"/>
<path d="M35.7202 57.6401C35.7202 56.2501 36.8502 55.1201 38.2402 55.1201C38.2902 55.1201 38.3302 55.1201 38.3802 55.1201C37.9502 54.3501 37.1302 53.8201 36.1802 53.8201C34.7902 53.8201 33.6602 54.9501 33.6602 56.3401C33.6602 57.7301 34.7202 58.7801 36.0402 58.8601C35.8402 58.5001 35.7202 58.0801 35.7202 57.6401Z" fill="white"/>
<path d="M73.1502 49.73C71.3402 50.12 69.4102 49.8 67.3102 48.75C67.2102 48.84 67.1202 48.93 67.0202 49.01C65.6702 50.17 64.1702 50.91 62.7402 51.39C63.4202 51.84 64.0902 52.3 64.7702 52.78C66.9602 53.94 68.8602 54.11 70.5602 53.29C72.1102 52.55 73.4202 51.05 74.4902 49.29C74.0602 49.47 73.6202 49.62 73.1602 49.72L73.1502 49.73Z" fill="#D4ECDA"/>
<path d="M33.8401 42.8801C33.8401 42.8801 33.8401 42.8801 33.8501 42.8801C34.3701 42.8401 34.9001 42.8001 35.4401 42.7801C37.5601 42.5701 41.6301 41.8401 44.5301 39.3901C42.1301 39.1401 39.5501 39.0801 36.8001 39.2801C24.4201 40.1901 18.0601 44.6001 14.3101 50.2401C19.5001 46.6101 26.0601 43.5501 33.8401 42.8801Z" fill="#D4ECDA"/>
<path d="M41.0201 39.2799C41.4101 39.2499 41.8001 39.2299 42.1801 39.2099C40.4701 39.1299 38.6701 39.1399 36.8001 39.2799C24.4201 40.1899 18.0601 44.5999 14.3101 50.2399C16.7601 48.5299 19.5201 46.9499 22.5601 45.6799C26.5001 42.3299 32.2501 39.9299 41.0201 39.2799Z" fill="white"/>
<path d="M58.33 44.4299C57.15 45.4899 55.82 46.2399 54.5 46.7899C55.4 47.1999 56.29 47.6399 57.19 48.1099C58.19 48.1499 61.24 48.1099 63.7 46.4199C62.56 45.6199 61.02 44.6399 59.11 43.6699C58.86 43.9399 58.6 44.1899 58.33 44.4399V44.4299Z" fill="#D4ECDA"/>
<path d="M45.5103 43.7199C45.9903 43.8299 46.4603 43.9499 46.9403 44.0699C47.7603 44.0999 51.9803 44.1199 55.0303 41.8599C53.3303 41.2199 51.4403 40.6299 49.3803 40.1699C48.3803 41.5399 47.0803 42.7199 45.5103 43.7099V43.7199Z" fill="#D4ECDA"/>
<path d="M45.6701 11.3701C49.6401 10.5801 54.0501 10.1801 58.7701 10.1801C66.4901 10.1801 74.0001 11.2201 80.0201 12.7201C79.6801 12.4801 79.3201 12.2401 78.9601 12.0001C73.4601 8.38007 64.5501 4.07007 53.4101 4.07007C49.3001 4.07007 45.1001 4.65007 40.9301 5.80007C28.3101 9.28007 13.9601 16.2501 4.09008 23.6801C4.03008 24.7501 4.09008 26.7701 5.18008 28.3001C5.84008 29.2301 6.81008 29.8501 8.11008 30.1801C12.4701 27.4501 35.1701 13.4501 45.6801 11.3601L45.6701 11.3701Z" fill="#F7DFDF"/>
<path d="M8.06008 24.9801C17.9201 17.5501 32.2801 10.5801 44.9001 7.10008C49.0701 5.95008 53.2701 5.37008 57.3801 5.37008C61.4901 5.37008 65.5201 5.99008 69.0401 6.96008C64.5701 5.29008 59.3101 4.08008 53.4101 4.08008C49.3001 4.08008 45.1001 4.66008 40.9301 5.81008C28.3101 9.29008 13.9601 16.2601 4.09008 23.6901C4.03008 24.7601 4.09008 26.7801 5.18008 28.3101C5.84008 29.2401 6.81008 29.8601 8.11008 30.1901C8.38008 30.0201 8.72008 29.8101 9.12008 29.5601C8.06008 28.0401 8.00008 26.0401 8.06008 24.9801Z" fill="white"/>
<path d="M91.4501 17.31C90.8201 16.58 87.3001 12.64 81.3101 8.68C75.3201 4.72 65.6101 0 53.4001 0C48.9301 0 44.3601 0.63 39.8401 1.88C26.4601 5.57 11.1701 13.07 0.910099 20.99C0.510099 21.3 0.240099 21.75 0.150099 22.24C0.110099 22.44 -0.689901 27.08 1.8401 30.65C3.2701 32.67 5.4001 33.92 8.1801 34.37C8.2901 34.39 8.4001 34.4 8.5001 34.4C8.8801 34.4 9.2601 34.29 9.5901 34.08C9.8501 33.91 35.8001 17.5 46.4701 15.38C50.1801 14.64 54.3201 14.27 58.7801 14.27C71.5001 14.27 84.5801 17.44 88.8301 20.4C89.1901 20.65 89.6101 20.76 90.0101 20.77C91.1301 20.77 92.0301 19.85 92.0301 18.73C92.0301 18.18 91.8101 17.68 91.4501 17.31ZM5.1701 28.31C4.0801 26.79 4.0201 24.76 4.0801 23.69C13.9401 16.26 28.3001 9.29 40.9201 5.81C45.0901 4.66 49.2901 4.08 53.4001 4.08C64.5501 4.08 73.4501 8.39 78.9501 12.01C79.3101 12.25 79.6701 12.49 80.0101 12.73C73.9901 11.23 66.4801 10.19 58.7601 10.19C54.0401 10.19 49.6301 10.59 45.6601 11.38C35.1501 13.47 12.4501 27.47 8.0901 30.2C6.7801 29.87 5.8201 29.25 5.1601 28.32L5.1701 28.31Z" fill="#BC9D82"/>
<path d="M80.7003 38.3301C79.7703 37.9901 78.7303 38.3601 78.2303 39.2301C75.8603 43.3601 74.0303 45.3601 72.2903 45.7401C71.5703 45.8901 70.7603 45.7901 69.8203 45.4201C70.7703 43.5501 71.3103 41.3301 71.4103 38.7801C71.4603 37.6501 70.5903 36.7001 69.4603 36.6501C68.3303 36.6001 67.3903 37.4801 67.3403 38.6001C67.2603 40.4101 66.9203 41.9701 66.3203 43.2701C65.1103 42.4001 63.4403 41.3201 61.3403 40.2201C62.0003 38.6601 62.3803 36.9001 62.4603 34.9501C62.5103 33.8201 61.6403 32.8701 60.5103 32.8201C59.3803 32.7701 58.4403 33.6501 58.3903 34.7701C58.3303 36.1601 58.0803 37.4101 57.6303 38.5001C55.7303 37.7201 53.6003 37.0001 51.2503 36.4201C51.6103 35.2501 51.8203 34.0001 51.8803 32.6701C51.9303 31.5401 51.0603 30.5901 49.9303 30.5401C48.8103 30.4901 47.8603 31.3701 47.8103 32.4901C47.7603 33.6601 47.5403 34.6901 47.2003 35.6101C43.9503 35.1101 40.3703 34.9201 36.4903 35.2001C16.1603 36.7001 10.0003 47.0701 6.66026 57.0301C6.66026 57.0301 6.66026 57.0401 6.66026 57.0501C6.46026 57.6601 6.55026 58.3601 6.95026 58.9101C7.28026 59.3601 15.3203 70.0201 33.2503 70.0201C34.4803 70.0201 35.7503 69.9701 37.0203 69.8701C55.6403 68.3701 62.4203 60.8901 64.6603 57.1801C67.3603 58.1701 69.9303 58.1001 72.3203 56.9601C79.5303 53.5001 81.9103 41.1201 82.0103 40.6001C82.1903 39.6201 81.6403 38.6501 80.7103 38.3101L80.7003 38.3301ZM70.5503 53.3001C68.8503 54.1201 66.9503 53.9501 64.7603 52.7901C64.0803 52.3101 63.4103 51.8401 62.7303 51.4001C64.1603 50.9301 65.6603 50.1801 67.0103 49.0201C67.1103 48.9301 67.2003 48.8401 67.3003 48.7601C69.4003 49.8101 71.3303 50.1301 73.1403 49.7401C73.6003 49.6401 74.0403 49.5001 74.4703 49.3101C73.4003 51.0701 72.1003 52.5601 70.5403 53.3101L70.5503 53.3001ZM36.1703 65.8601C30.9403 65.8601 26.6803 61.5901 26.6803 56.3401C26.6803 51.0901 30.9403 46.8201 36.1703 46.8201C41.4003 46.8201 45.6603 51.0901 45.6603 56.3401C45.6603 61.5901 41.4003 65.8601 36.1703 65.8601ZM36.8003 39.2801C39.5503 39.0801 42.1303 39.1401 44.5303 39.3901C41.6303 41.8401 37.5603 42.5701 35.4403 42.7801C34.9003 42.8001 34.3703 42.8401 33.8503 42.8801C33.8503 42.8801 33.8503 42.8801 33.8403 42.8801C26.0603 43.5501 19.5003 46.6101 14.3103 50.2401C18.0703 44.5901 24.4203 40.1901 36.8003 39.2801ZM63.7003 46.4101C61.2403 48.1001 58.1903 48.1401 57.1903 48.1001C56.2903 47.6301 55.4003 47.1901 54.5003 46.7801C55.8203 46.2301 57.1403 45.4801 58.3303 44.4201C58.6003 44.1701 58.8603 43.9201 59.1103 43.6501C61.0303 44.6301 62.5703 45.6001 63.7003 46.4001V46.4101ZM46.9303 44.0601C46.4503 43.9301 45.9803 43.8201 45.5003 43.7101C47.0703 42.7201 48.3703 41.5401 49.3703 40.1701C51.4303 40.6301 53.3203 41.2101 55.0203 41.8601C51.9703 44.1101 47.7503 44.0901 46.9303 44.0701V44.0601ZM11.4003 57.8301C14.7703 54.6901 19.2103 51.4101 24.6003 49.2601C23.3403 51.3201 22.6003 53.7501 22.6003 56.3501C22.6003 59.7601 23.8603 62.8801 25.9403 65.2701C18.1103 63.7001 13.4203 59.8801 11.4003 57.8401V57.8301ZM57.7403 58.9001C55.6903 60.5701 52.4303 62.5201 47.4003 63.9601C48.8703 61.7901 49.7403 59.1601 49.7403 56.3401C49.7403 53.3601 48.7803 50.6101 47.1603 48.3701C51.7503 49.7401 56.4103 52.0201 61.1003 55.2001C60.5203 56.1301 59.4803 57.4801 57.7503 58.9001H57.7403Z" fill="#BC9D82"/>
<path d="M36.1803 49.74C32.5503 49.74 29.5903 52.7 29.5903 56.35C29.5903 60 32.5503 62.96 36.1803 62.96C39.8103 62.96 42.7703 60 42.7703 56.35C42.7703 52.7 39.8103 49.74 36.1803 49.74ZM36.1803 58.87C34.7903 58.87 33.6603 57.74 33.6603 56.35C33.6603 54.96 34.7903 53.83 36.1803 53.83C37.5703 53.83 38.7003 54.96 38.7003 56.35C38.7003 57.74 37.5703 58.87 36.1803 58.87Z" fill="#BC9D82"/>
</svg>
