<svg width="96" height="112" viewBox="0 0 96 112" fill="none" xmlns="http://www.w3.org/2000/svg">
<path fill-rule="evenodd" clip-rule="evenodd" d="M78.7205 21.9737C64.9241 35.5518 69.552 40.5203 67.8755 57.0673C65.9981 75.5441 48.9621 61.8001 42.5004 79.3163C37.8463 91.9165 49.3288 99.7229 58.9689 99.4696C75.5683 99.033 73.4726 78.12 59.5015 85.9177C54.6204 88.642 61.2305 77.8232 69.7528 79.5434C78.4586 81.2985 82.3006 87.9347 80.563 94.1519C78.3713 102.002 71.8136 106.359 63.8762 108.289C58.7069 109.546 53.7821 109.992 49.1455 109.773C-11.4891 102.596 -6.59925 13.0496 44.762 7.86287C68.9582 5.41793 84.6321 16.1495 78.7205 21.9737Z" fill="#D4ECDA"/>
<path fill-rule="evenodd" clip-rule="evenodd" d="M83.0517 76.6619C87.9154 77.7883 90.8144 75.6141 90.6223 71.8768C90.5 69.4406 90.3778 67.0044 90.2555 64.5682C92.3425 61.2588 92.552 62.2367 89.8888 59.2329C89.8888 59.2329 91.7487 58.4034 92.8576 56.9626C93.9666 55.5131 90.8842 53.1119 91.2859 52.4832C91.6876 51.8632 97.1974 48.2744 95.2502 47.829C93.303 47.3837 85.5141 40.0925 84.2305 36.233C82.0038 29.5531 80.6504 24.2615 78.6595 20.4631C64.3566 33.9627 69.36 39.3154 67.6485 56.1418C65.7362 74.9417 48.4121 60.9619 41.8369 78.775C37.1741 91.4014 48.447 99.3038 58.1657 99.2863C44.7185 85.2716 52.7606 69.6676 83.0517 76.6619Z" fill="#F7DFDF"/>
<path d="M50.5165 111.991C49.6957 111.991 48.8749 111.974 48.0628 111.93H47.9755C14.5409 107.983 -0.207366 80.7397 0.00220082 55.4869C0.115716 42.2667 4.11494 29.6229 11.2664 19.878C19.195 9.0941 30.2846 2.69359 43.3563 1.37506C62.8547 -0.598353 78.3364 5.46161 81.5061 12.2114C82.5889 14.5254 82.1959 16.7782 80.3797 18.5595C69.8577 28.9156 69.8315 34.0936 69.7704 43.4892C69.7529 46.7375 69.7267 50.4311 69.2727 54.9368C68.155 65.9565 62.0426 67.1702 56.1398 68.349C50.6125 69.4493 45.3908 70.4884 42.3084 78.8274C40.5708 83.5339 41.0074 87.9086 43.5746 91.4887C46.657 95.7848 52.6558 98.5441 58.4975 98.4131C63.8676 98.2734 67.893 95.8721 69.2465 91.9951C70.0847 89.5938 69.6132 87.1052 68.0764 85.8129C66.2776 84.3023 63.2389 84.5555 59.7374 86.5027C59.2135 86.7996 57.6068 87.6903 56.5415 86.6512C56.1573 86.2757 55.6421 85.4025 56.4978 83.7871C58.0347 80.8794 63.6493 75.9895 70.2157 77.3167C75.1667 78.3122 79.0961 80.8357 81.2878 84.4158C83.139 87.4371 83.628 90.991 82.6587 94.4313C80.4321 102.412 73.9879 107.913 64.0335 110.332C59.4667 111.441 54.9348 112 50.5165 112V111.991ZM48.2287 109.319C53.1535 109.555 58.2617 109.031 63.4135 107.782C69.6743 106.263 77.6641 102.587 80.1352 93.7241C80.8949 90.991 80.5107 88.1705 79.0524 85.7867C77.2449 82.8353 73.9181 80.7397 69.6918 79.8927C66.4522 79.2378 63.7017 80.5476 61.9553 81.7613C61.152 82.3201 60.4971 82.9052 59.9906 83.4466C63.8851 81.7089 67.3866 81.8137 69.7529 83.8133C72.1542 85.8304 72.9226 89.3843 71.7089 92.8683C69.98 97.8106 65.0639 100.867 58.5586 101.041C51.8699 101.242 44.9979 97.994 41.4353 93.0255C39.2785 90.013 37.2527 84.9572 39.846 77.928C43.4349 68.2181 50.1847 66.8733 55.6159 65.7906C61.2655 64.6642 65.7275 63.7735 66.6531 54.6835C67.0984 50.3001 67.1246 46.6764 67.1421 43.4892C67.1945 34.0587 67.2381 27.8328 78.5285 16.7083C79.524 15.7304 79.7161 14.6214 79.1136 13.3378C76.6861 8.15978 62.9944 2.03869 43.6008 3.99465C24.0674 5.95933 2.9012 22.9255 2.62178 55.5043C2.50827 68.5673 6.40271 80.9492 13.5716 90.3885C21.6661 101.041 33.6551 107.59 48.2287 109.319Z" fill="#BC9D82"/>
<path fill-rule="evenodd" clip-rule="evenodd" d="M79.4191 20.2361C68.836 30.3302 72.2065 28.4179 69.6481 39.7258C64.112 64.2451 30.887 79.5521 19.4394 59.5298C16.8984 55.0853 14.8464 46.039 19.9895 39.263L22.2511 36.9316L21.7097 39.3678C19.6228 47.9425 21.8058 53.0944 27.3069 57.6961C32.581 62.1057 42.125 62.813 51.4507 56.6919C65.5266 47.4273 63.1428 36.1893 69.098 27.5185C72.0232 23.2573 75.1055 21.6594 79.4104 20.2361H79.4191Z" fill="white"/>
<path fill-rule="evenodd" clip-rule="evenodd" d="M74.8085 25.0036C70.0583 39.0271 72.1976 38.9485 71.2546 51.9678C70.3727 64.1314 62.1996 67.8687 51.7998 72.4268C33.6811 80.3641 40.7976 100.09 64.4 97.4001L68.3818 96.9024L64.9676 99.0679C54.4369 103.836 38.3352 98.2471 35.8728 86.9131C33.716 76.9848 41.9066 68.6982 51.6252 65.2666C69.1153 59.0844 64.662 52.5791 67.6483 38.5032C69.2463 30.985 69.7003 30.5135 74.826 24.9949L74.8085 25.0036Z" fill="white"/>
</svg>
