<svg width="99" height="97" viewBox="0 0 99 97" fill="none" xmlns="http://www.w3.org/2000/svg">
<path d="M5.8531 43.6209H5.75255C4.76085 43.6209 3.75528 43.4163 2.74278 43.0106C1.7268 42.6014 0.943154 41.9565 0.395293 41.0757C0.305138 40.8989 0.263528 40.7325 0.263528 40.5799C0.263528 40.4273 0.329411 40.2332 0.461175 40.0008C0.592939 39.7685 0.835662 39.6541 1.18935 39.6541C1.65399 39.6541 1.96259 39.8968 2.11516 40.3823C2.40296 41.419 2.92655 42.1368 3.68593 42.5321C4.44531 42.9308 5.15961 43.1285 5.81843 43.1285C7.07366 43.1285 8.01681 42.7263 8.64789 41.9218C9.27551 41.1174 9.59105 40.2401 9.59105 39.2935C9.59105 38.6104 9.38647 38.066 8.98077 37.6568C8.57161 37.2476 8.04802 36.9182 7.41 36.6651C6.76852 36.412 6.07502 36.1762 5.32605 35.9543C4.44531 35.7116 3.59924 35.4238 2.79479 35.0943C1.99033 34.7649 1.32111 34.2968 0.794053 33.69C0.263528 33.0832 0 32.251 0 31.1934C0 30.4895 0.221919 29.7926 0.662288 29.1095C1.10266 28.4264 1.75454 27.8577 2.61448 27.4069C3.47441 26.9562 4.51119 26.7273 5.72481 26.7273C6.6957 26.7273 7.6874 26.9319 8.70337 27.3411C9.71588 27.7502 10.4995 28.3848 11.0509 29.2447C11.1375 29.4007 11.1826 29.5637 11.1826 29.7406C11.1826 29.8966 11.1202 30.0873 11.0023 30.3196C10.8809 30.5519 10.6313 30.6664 10.2568 30.6664C9.83724 30.6664 9.53903 30.4236 9.36219 29.9382C9.05359 28.9014 8.53 28.1837 7.79143 27.7884C7.05285 27.3896 6.36282 27.192 5.72481 27.192C4.57707 27.192 3.71367 27.5387 3.12767 28.2357C2.54166 28.9292 2.25039 29.6643 2.25039 30.4341C2.25039 31.0513 2.43764 31.5471 2.81213 31.9216C3.18661 32.2961 3.679 32.6116 4.2858 32.8648C4.89261 33.1179 5.54797 33.3433 6.25533 33.5444C7.13607 33.8079 7.9856 34.1235 8.80393 34.4875C9.61879 34.8516 10.3019 35.3579 10.8532 36.0098C11.4045 36.6616 11.6785 37.5597 11.6785 38.7075C11.6785 39.5223 11.4635 40.306 11.0335 41.0549C10.6036 41.8039 9.9586 42.4211 9.09867 42.9066C8.23873 43.392 7.15688 43.6347 5.85657 43.6347L5.8531 43.6209Z" fill="#5E7261"/>
<path d="M17.8921 43.5897H15.1459V20.3992H17.8921V43.5897Z" fill="#5E7261"/>
<path d="M28.3814 43.5897C26.4396 43.5897 24.7856 42.8234 23.4194 41.2907C22.0532 39.7581 21.3701 37.7123 21.3701 35.1533C21.3701 32.5943 22.0532 30.5485 23.4194 29.0159C24.7856 27.4832 26.4396 26.7169 28.3814 26.7169C30.3231 26.7169 32.0049 27.4832 33.3607 29.0159C34.7164 30.5485 35.3961 32.5943 35.3961 35.1533C35.3961 37.7123 34.7164 39.7581 33.3607 41.2907C32.0049 42.8234 30.344 43.5897 28.3814 43.5897ZM28.3814 43.125C29.0645 43.125 29.7267 42.8719 30.3648 42.3657C31.8419 41.2179 32.5805 38.8254 32.5805 35.188V35.1221C32.5805 31.4847 31.8419 29.0921 30.3648 27.9444C29.7233 27.4382 29.0645 27.185 28.3814 27.185C27.6983 27.185 27.0568 27.4382 26.398 27.9444C24.9208 29.0921 24.1822 31.4847 24.1822 35.1221V35.188C24.1822 38.8254 24.9208 41.2214 26.398 42.3657C27.0603 42.8719 27.7225 43.125 28.3814 43.125Z" fill="#5E7261"/>
<path d="M50.9062 43.5897H50.3444L47.2029 36.145L44.4254 43.5897H43.8637L36.8837 26.9839H39.7617L45.2854 39.7859L46.9081 35.4515L43.3679 26.9839H46.2459L51.7696 39.7859L56.5651 26.9839H57.1268L50.9062 43.5897Z" fill="#5E7261"/>
<path d="M14.4109 69.6998C13.8596 69.6998 13.3395 69.5715 12.8575 69.3184C12.372 69.0653 12.008 68.6526 11.7652 68.077C10.4649 69.1589 8.99819 69.6998 7.365 69.6998C5.42321 69.6998 3.76923 68.9439 2.40304 67.4321C1.03685 65.9202 0.35376 63.9091 0.35376 61.3952C0.35376 58.8813 1.03685 56.8424 2.40304 55.341C3.76923 53.843 5.42321 53.0906 7.365 53.0906C9.06407 53.0906 10.4857 53.6523 11.6335 54.7792V53.0906H14.3797V68.077C14.4664 68.6526 14.6779 68.937 15.0073 68.937C15.1599 68.937 15.3159 68.8607 15.472 68.7046C15.6696 68.4827 15.8014 68.2296 15.8707 67.9453C15.9158 67.7927 16.0129 67.7129 16.1689 67.7129C16.3458 67.7129 16.4325 67.8135 16.4325 68.0111V68.1117C16.3423 68.4654 16.1689 68.7948 15.9019 69.1034C15.5032 69.5022 15.0073 69.6998 14.4144 69.6998H14.4109ZM7.365 69.2352C7.91633 69.2352 8.52314 69.0687 9.18543 68.7393C10.8186 67.9453 11.6335 66.104 11.6335 63.2156V58.3854C11.6335 57.151 11.3907 56.187 10.9053 55.4901C10.4199 54.7966 9.84772 54.3007 9.18543 54.0025C8.52314 53.7043 7.91633 53.5552 7.365 53.5552C6.70271 53.5552 6.04043 53.7979 5.3816 54.2834C3.90446 55.4311 3.16589 57.789 3.16589 61.364V61.4299C3.16589 65.0014 3.90446 67.3627 5.3816 68.5105C6.04389 68.9959 6.70618 69.2386 7.365 69.2386V69.2352Z" fill="#5E7261"/>
<path d="M22.7122 69.6998H19.9659V53.094H22.7122V54.6475C23.3953 53.7667 24.3662 53.2466 25.6214 53.094H25.8537C27.1124 53.094 28.1631 53.4235 29.0126 54.0857C29.8621 54.748 30.4308 55.6392 30.7151 56.7661L30.7498 57.1302C30.7498 57.3937 30.6458 57.6642 30.4343 57.9416C30.2227 58.219 29.9107 58.3542 29.4911 58.3542C29.1617 58.3542 28.8739 58.2398 28.6312 58.0075C28.3885 57.7751 28.2567 57.4839 28.2324 57.1302C28.2116 56.1836 27.9966 55.3479 27.5875 54.6336C27.1783 53.9158 26.5229 53.5587 25.6179 53.5587C24.8031 53.5587 24.113 53.9713 23.5513 54.8C22.9896 55.6253 22.7087 56.8008 22.7087 58.323V69.7033L22.7122 69.6998Z" fill="#5E7261"/>
<path d="M36.738 69.6998C36.0549 69.6998 35.4099 69.4848 34.8031 69.0549C34.1963 68.6249 33.8946 67.8933 33.8946 66.8565V53.6905H32.5701C32.4799 53.6905 32.4105 53.6558 32.3551 53.5899C32.2996 53.524 32.2719 53.4477 32.2719 53.3576C32.2719 53.1807 32.3724 53.0941 32.5701 53.0941C33.4508 53.0941 33.9709 53.0837 34.1235 53.0629C34.5639 52.997 34.9834 52.7438 35.3822 52.3035C35.9127 51.7071 36.197 50.7604 36.2421 49.4567C36.2421 49.3041 36.3184 49.2244 36.4744 49.2244C36.6305 49.2244 36.7068 49.3006 36.7068 49.4567V53.0941H37.8649C38.0625 53.0941 38.1631 53.1946 38.1631 53.3923C38.118 53.5899 38.0071 53.6905 37.8337 53.6905H36.7102V67.8482C36.7102 68.5972 36.9183 68.9716 37.3378 68.9716C37.4904 68.9716 37.6464 68.8954 37.8025 68.7393V68.7046C38.0001 68.4827 38.1423 68.2296 38.2324 67.9453C38.2775 67.7927 38.3642 67.7129 38.496 67.7129C38.6069 67.7129 38.6832 67.7476 38.7283 67.8135C38.7734 67.8794 38.7942 67.9557 38.7942 68.0458V68.1117C38.5515 69.1693 37.8684 69.6998 36.7449 69.6998H36.738Z" fill="#5E7261"/>
<path d="M22.4345 93.1088H5.89465V78.7534H6.58815V92.4153H22.4345V93.1088Z" fill="#5E7261"/>
<path d="M98.9999 93.1087H86.8326V92.4152H98.3064V0.693496H6.58815V17.6633H5.89465V0H98.9999V93.1087Z" fill="#5E7261"/>
<path d="M98.9998 93.1087H82.401V92.4152H98.3063" fill="#5E7261"/>
<path d="M98.9998 93.1087H82.401V92.4152H98.3063" fill="#5E7261"/>
<path d="M32.6151 91.0803H32.2683C32.1158 90.2481 31.8384 89.7141 31.4361 89.4748C31.0339 89.2356 30.6248 89.1281 30.2191 89.1523C29.8619 89.1627 29.5464 89.2772 29.2724 89.4956C28.9777 89.7314 28.8321 90.0261 28.8321 90.3798C28.8321 90.6156 28.9153 90.8341 29.0817 91.0352C29.3244 91.3265 29.8966 91.7113 30.7947 92.1968C31.4188 92.5297 31.8176 92.7551 31.9909 92.8764C32.4348 93.1781 32.7469 93.504 32.9272 93.8508C33.0693 94.1386 33.1421 94.4368 33.1421 94.7523C33.1421 95.4077 32.889 95.9417 32.3828 96.3612C31.9077 96.7496 31.3321 96.9403 30.6629 96.9403C30.4375 96.9403 30.2295 96.9264 30.0422 96.8987C29.7926 96.871 29.529 96.7912 29.2447 96.656C28.9604 96.5207 28.6795 96.2537 28.3986 95.855C28.1178 95.4562 27.9791 94.9049 27.9791 94.2079H28.3258C28.3293 94.735 28.4021 95.1268 28.5408 95.3869C28.7211 95.7301 29.0054 96.0041 29.3869 96.2052C29.7336 96.3924 30.1185 96.4826 30.5381 96.4826C30.9576 96.4826 31.3148 96.3751 31.613 96.1566C31.9424 95.9209 32.1054 95.5984 32.1054 95.1927C32.1054 94.787 31.8869 94.3882 31.45 94.0554C31.183 93.8508 30.7392 93.5803 30.122 93.244C29.5048 92.9111 29.0575 92.6302 28.7766 92.4118C28.1975 91.9541 27.9062 91.4097 27.9062 90.7751C27.9062 90.1406 28.142 89.6586 28.6101 89.2668C29.054 88.8923 29.588 88.705 30.2121 88.705C30.923 88.7466 31.4257 88.8853 31.717 89.1211C32.0083 89.3569 32.2129 89.617 32.3377 89.9013C32.5007 90.2793 32.5943 90.6746 32.6151 91.0803Z" fill="#5E7261"/>
<path d="M40.7878 88.705H40.9924L44.6089 96.76H43.1422L42.8925 96.0838C42.8648 96.0076 42.7504 95.7301 42.5458 95.2551L42.0673 94.1212H39.0228L37.8855 96.76H37.296L40.7878 88.705ZM41.9078 93.6947L40.5728 90.5151L39.1997 93.6947H41.9043H41.9078Z" fill="#5E7261"/>
<path d="M54.4082 96.76H49.4427V88.8992L50.5593 88.8888V95.3626C50.5593 95.6885 50.5905 95.907 50.6529 96.0249C50.7222 96.1566 50.8956 96.2364 51.1696 96.2641H54.5711L54.4082 96.7635V96.76Z" fill="#5E7261"/>
<path d="M62.5498 88.705C63.6386 88.705 64.5471 89.1142 65.2787 89.936C65.9791 90.7266 66.3294 91.6732 66.3294 92.7759C66.3294 93.8785 65.9722 94.8945 65.2614 95.692C64.5228 96.5242 63.5866 96.9403 62.4562 96.9403C61.3258 96.9403 60.3722 96.5311 59.651 95.7163C58.961 94.9361 58.6177 93.9617 58.6177 92.7967C58.6177 91.5449 59.0442 90.5255 59.8937 89.7349C60.6323 89.0483 61.5165 88.7085 62.5463 88.7085L62.5498 88.705ZM62.4388 89.1281C61.7349 89.1281 61.1697 89.3881 60.7432 89.9117C60.2127 90.5636 59.9492 91.5137 59.9492 92.7689C59.9492 94.0242 60.2231 95.0471 60.7744 95.7371C61.194 96.2641 61.7488 96.5277 62.4458 96.5277C63.3647 96.5277 64.0408 96.1358 64.4777 95.3557C64.8245 94.735 65.0013 93.9305 65.0013 92.9354C65.0013 91.8778 64.8349 91.0317 64.5089 90.3937C64.079 89.5546 63.3889 89.135 62.4423 89.135L62.4388 89.1281Z" fill="#5E7261"/>
<path d="M71.0278 88.8853H71.6138L76.4266 94.7905V88.8853H76.9363V96.8883H76.7248L71.534 90.5497V96.76H71.0243V88.8853H71.0278Z" fill="#5E7261"/>
</svg>
