<svg width="162" height="159" viewBox="0 0 162 159" fill="none" xmlns="http://www.w3.org/2000/svg">
<path d="M9.58309 71.5464H9.41855C7.79582 71.5464 6.1504 71.2109 4.49364 70.5455C2.8312 69.8744 1.5489 68.8165 0.652435 67.372C0.504915 67.0819 0.436828 66.8089 0.436828 66.5587C0.436828 66.3084 0.544632 65.9899 0.760238 65.6089C0.975845 65.2278 1.37302 65.0402 1.95175 65.0402C2.71205 65.0402 3.21702 65.4383 3.46667 66.2345C3.9376 67.935 4.79435 69.1123 6.03693 69.7606C7.2795 70.4147 8.44832 70.7388 9.52635 70.7388C11.5803 70.7388 13.1236 70.0791 14.1562 68.7597C15.1832 67.4402 15.6995 66.0013 15.6995 64.4487C15.6995 63.3283 15.3647 62.4354 14.7009 61.7643C14.0314 61.0932 13.1746 60.5529 12.1307 60.1377C11.081 59.7225 9.94622 59.3358 8.72066 58.9718C7.2795 58.5737 5.89508 58.1017 4.57874 57.5614C3.26241 57.0211 2.16736 56.2533 1.30493 55.258C0.436828 54.2627 0.00561523 52.8978 0.00561523 51.1631C0.00561523 50.0086 0.368742 48.8655 1.08932 47.7451C1.8099 46.6247 2.87659 45.692 4.2837 44.9526C5.69082 44.2133 7.38731 43.8379 9.37316 43.8379C10.9618 43.8379 12.5846 44.1734 14.247 44.8445C15.9038 45.5156 17.1861 46.5564 18.0882 47.9669C18.23 48.2228 18.3038 48.4901 18.3038 48.7802C18.3038 49.0361 18.2017 49.3489 18.0088 49.7299C17.8102 50.111 17.4017 50.2987 16.7889 50.2987C16.1024 50.2987 15.6144 49.9006 15.325 49.1043C14.8201 47.4038 13.9633 46.2266 12.7548 45.5782C11.5462 44.9242 10.4171 44.6 9.37316 44.6C7.49511 44.6 6.08232 45.1687 5.12344 46.3119C4.16455 47.4493 3.68795 48.655 3.68795 49.9176C3.68795 50.93 3.99434 51.7432 4.60711 52.3575C5.21989 52.9717 6.02558 53.4892 7.0185 53.9044C8.01143 54.3196 9.08379 54.6893 10.2413 55.0191C11.6824 55.4514 13.0725 55.9689 14.4115 56.5661C15.7449 57.1632 16.8626 57.9936 17.7648 59.0628C18.6669 60.132 19.1152 61.605 19.1152 63.4875C19.1152 64.824 18.7634 66.1094 18.0598 67.3378C17.3563 68.5663 16.3009 69.5786 14.8938 70.3749C13.4867 71.1711 11.7165 71.5692 9.58876 71.5692L9.58309 71.5464Z" fill="#BB9D82"/>
<path d="M29.2828 71.4952H24.7891V33.4585H29.2828V71.4952Z" fill="#BB9D82"/>
<path d="M46.4462 71.4952C43.2688 71.4952 40.5624 70.2383 38.3269 67.7245C36.0914 65.2108 34.9736 61.8552 34.9736 57.658C34.9736 53.4608 36.0914 50.1053 38.3269 47.5915C40.5624 45.0777 43.2688 43.8208 46.4462 43.8208C49.6235 43.8208 52.3754 45.0777 54.5938 47.5915C56.8123 50.1053 57.9244 53.4608 57.9244 57.658C57.9244 61.8552 56.8123 65.2108 54.5938 67.7245C52.3754 70.2383 49.6576 71.4952 46.4462 71.4952ZM46.4462 70.7331C47.5639 70.7331 48.6476 70.318 49.6916 69.4876C52.1087 67.6051 53.3172 63.6809 53.3172 57.7149V57.6068C53.3172 51.6408 52.1087 47.7166 49.6916 45.8341C48.642 45.0038 47.5639 44.5886 46.4462 44.5886C45.3284 44.5886 44.2788 45.0038 43.2007 45.8341C40.7837 47.7166 39.5751 51.6408 39.5751 57.6068V57.7149C39.5751 63.6809 40.7837 67.6108 43.2007 69.4876C44.2844 70.318 45.3681 70.7331 46.4462 70.7331Z" fill="#BB9D82"/>
<path d="M83.3035 71.4953H82.3843L77.2438 59.2846L72.699 71.4953H71.7799L60.3584 44.2588H65.0677L74.1062 65.2563L76.7615 58.1472L70.9685 44.2588H75.6778L84.7163 65.2563L92.5632 44.2588H93.4824L83.3035 71.4953Z" fill="#BB9D82"/>
<path d="M23.5863 114.32C22.6842 114.32 21.8331 114.11 21.0444 113.695C20.2501 113.28 19.6543 112.603 19.2571 111.659C17.1294 113.433 14.7294 114.32 12.057 114.32C8.87965 114.32 6.17322 113.08 3.93772 110.601C1.70222 108.121 0.584473 104.823 0.584473 100.699C0.584473 96.5759 1.70222 93.2318 3.93772 90.7692C6.17322 88.3123 8.87965 87.0781 12.057 87.0781C14.8372 87.0781 17.1635 87.9995 19.0415 89.8478V87.0781H23.5352V111.659C23.6771 112.603 24.0232 113.069 24.5622 113.069C24.8118 113.069 25.0672 112.944 25.3225 112.688C25.6459 112.324 25.8615 111.909 25.975 111.443C26.0487 111.192 26.2076 111.061 26.4629 111.061C26.7523 111.061 26.8942 111.226 26.8942 111.551V111.716C26.7466 112.296 26.4629 112.836 26.0261 113.342C25.3736 113.996 24.5622 114.32 23.592 114.32H23.5863ZM12.057 113.558C12.9592 113.558 13.9521 113.285 15.0358 112.745C17.7082 111.443 19.0415 108.423 19.0415 103.685V95.7626C19.0415 93.738 18.6444 92.1569 17.85 91.0137C17.0557 89.8763 16.1195 89.063 15.0358 88.5739C13.9521 88.0848 12.9592 87.8402 12.057 87.8402C10.9733 87.8402 9.8896 88.2383 8.81157 89.0346C6.3945 90.9171 5.18597 94.7844 5.18597 100.648V100.756C5.18597 106.614 6.3945 110.487 8.81157 112.37C9.89527 113.166 10.979 113.564 12.057 113.564V113.558Z" fill="#BB9D82"/>
<path d="M37.1695 114.32H32.6758V87.084H37.1695V89.6319C38.2872 88.1873 39.8759 87.3342 41.9298 87.084H42.31C44.3696 87.084 46.0888 87.6243 47.4789 88.7106C48.869 89.7968 49.7995 91.2585 50.2647 93.1068L50.3215 93.704C50.3215 94.1362 50.1513 94.5799 49.8052 95.0348C49.4591 95.4898 48.9484 95.7116 48.2619 95.7116C47.7229 95.7116 47.2519 95.5239 46.8548 95.1429C46.4576 94.7618 46.242 94.2841 46.2023 93.704C46.1682 92.1514 45.8164 90.7807 45.1469 89.6091C44.4774 88.4319 43.405 87.8461 41.9242 87.8461C40.5908 87.8461 39.4617 88.5229 38.5426 89.8821C37.6234 91.2357 37.1638 93.1637 37.1638 95.6604V114.326L37.1695 114.32Z" fill="#BB9D82"/>
<path d="M60.1202 114.32C59.0024 114.32 57.9471 113.968 56.9542 113.263C55.9612 112.557 55.4676 111.357 55.4676 109.657V88.0621H53.3002C53.1527 88.0621 53.0392 88.0052 52.9484 87.8971C52.8576 87.7891 52.8123 87.664 52.8123 87.5161C52.8123 87.226 52.9768 87.0838 53.3002 87.0838C54.7414 87.0838 55.5924 87.0668 55.8421 87.0327C56.5627 86.9246 57.2492 86.5094 57.9017 85.7871C58.7698 84.8089 59.2351 83.2563 59.3088 81.1179C59.3088 80.8676 59.4336 80.7368 59.689 80.7368C59.9443 80.7368 60.0691 80.8619 60.0691 81.1179V87.0838H61.9642C62.2876 87.0838 62.4521 87.2488 62.4521 87.573C62.3784 87.8971 62.1968 88.0621 61.9131 88.0621H60.0748V111.283C60.0748 112.512 60.4152 113.126 61.1018 113.126C61.3514 113.126 61.6067 113.001 61.8621 112.745V112.688C62.1855 112.324 62.4181 111.909 62.5656 111.443C62.6394 111.192 62.7812 111.062 62.9968 111.062C63.1784 111.062 63.3032 111.118 63.377 111.226C63.4507 111.335 63.4848 111.46 63.4848 111.608V111.716C63.0876 113.45 61.9699 114.32 60.1315 114.32H60.1202Z" fill="#BB9D82"/>
<path d="M36.7154 152.715H9.65112V129.17H10.7859V151.578H36.7154V152.715Z" fill="#BB9D82"/>
<path d="M162 152.716H142.09V151.578H160.865V1.13746H10.7859V28.9711H9.65112V0H162V152.716Z" fill="#BB9D82"/>
<path d="M162 152.716H134.839V151.578H160.865" fill="#BB9D82"/>
<path d="M162 152.716H134.839V151.578H160.865" fill="#BB9D82"/>
<path d="M53.374 149.388H52.8067C52.557 148.024 52.1031 147.148 51.4449 146.755C50.7868 146.363 50.1173 146.187 49.4534 146.226C48.869 146.243 48.3527 146.431 47.9044 146.789C47.4222 147.176 47.1839 147.66 47.1839 148.24C47.1839 148.626 47.32 148.985 47.5924 149.315C47.9896 149.792 48.9257 150.424 50.3953 151.22C51.4166 151.766 52.0691 152.135 52.3527 152.335C53.079 152.829 53.5897 153.364 53.8847 153.933C54.1173 154.405 54.2365 154.894 54.2365 155.411C54.2365 156.486 53.8223 157.362 52.9939 158.05C52.2166 158.687 51.2747 159 50.1797 159C49.8109 159 49.4704 158.977 49.164 158.932C48.7555 158.886 48.3243 158.755 47.8591 158.534C47.3938 158.312 46.9342 157.874 46.4746 157.22C46.0151 156.566 45.7881 155.662 45.7881 154.518H46.3555C46.3612 155.383 46.4803 156.026 46.7073 156.452C47.0023 157.015 47.4676 157.464 48.0917 157.794C48.6591 158.101 49.2889 158.249 49.9754 158.249C50.6619 158.249 51.2463 158.073 51.7343 157.715C52.2733 157.328 52.54 156.799 52.54 156.134C52.54 155.468 52.1825 154.814 51.4676 154.268C51.0307 153.933 50.3045 153.489 49.2945 152.937C48.2846 152.391 47.5527 151.931 47.0931 151.572C46.1456 150.822 45.6689 149.929 45.6689 148.888C45.6689 147.847 46.0548 147.057 46.8207 146.414C47.547 145.8 48.4208 145.493 49.4421 145.493C50.6052 145.561 51.4279 145.788 51.9045 146.175C52.3811 146.562 52.7159 146.988 52.9201 147.455C53.1868 148.075 53.34 148.723 53.374 149.388Z" fill="#BB9D82"/>
<path d="M66.7473 145.493H67.082L72.9999 158.704H70.5998L70.1913 157.595C70.1459 157.47 69.9587 157.015 69.6239 156.236L68.8409 154.376H63.8593L61.9982 158.704H61.0337L66.7473 145.493ZM68.5799 153.677L66.3955 148.461L64.1486 153.677H68.5742H68.5799Z" fill="#BB9D82"/>
<path d="M89.0341 158.704H80.9092V145.811L82.7362 145.794V156.412C82.7362 156.947 82.7872 157.305 82.8894 157.498C83.0028 157.715 83.2865 157.845 83.7348 157.891H89.3008L89.0341 158.71V158.704Z" fill="#BB9D82"/>
<path d="M102.357 145.493C104.138 145.493 105.625 146.164 106.822 147.512C107.968 148.808 108.541 150.361 108.541 152.17C108.541 153.978 107.957 155.645 106.793 156.953C105.585 158.318 104.053 159 102.203 159C100.354 159 98.7933 158.329 97.6132 156.992C96.4841 155.713 95.9224 154.115 95.9224 152.204C95.9224 150.151 96.6203 148.479 98.0103 147.182C99.2189 146.056 100.666 145.498 102.351 145.498L102.357 145.493ZM102.175 146.187C101.023 146.187 100.098 146.613 99.4004 147.472C98.5323 148.541 98.1011 150.099 98.1011 152.158C98.1011 154.217 98.5494 155.895 99.4515 157.027C100.138 157.891 101.046 158.323 102.186 158.323C103.69 158.323 104.796 157.681 105.511 156.401C106.079 155.383 106.368 154.063 106.368 152.431C106.368 150.697 106.096 149.309 105.562 148.262C104.859 146.886 103.73 146.198 102.181 146.198L102.175 146.187Z" fill="#BB9D82"/>
<path d="M116.229 145.789H117.188L125.063 155.474V145.789H125.897V158.915H125.551L117.057 148.518V158.704H116.223V145.789H116.229Z" fill="#BB9D82"/>
</svg>
