<svg width="82" height="82" viewBox="0 0 82 82" fill="none" xmlns="http://www.w3.org/2000/svg">
<path d="M40.3301 1.83008C61.5801 1.83008 78.8301 19.0801 78.8301 40.3301V79.8301H1.83008V40.3301C1.83008 19.0801 19.0801 1.83008 40.3301 1.83008Z" fill="white"/>
<path d="M44.8301 1.83008H47.8301C66.0401 1.83008 80.8301 16.6201 80.8301 34.8301V79.8301H11.8301V34.8301C11.8301 16.6101 26.6101 1.83008 44.8301 1.83008Z" fill="#D4ECDA"/>
<path d="M81.83 81.83H0V43.83C0 19.66 19.66 0 43.83 0C64.78 0 81.83 17.05 81.83 38V81.83ZM2.24 79.59H79.59V38C79.59 18.28 63.55 2.24 43.83 2.24C20.9 2.24 2.24 20.9 2.24 43.83V79.59Z" fill="#BC9D82"/>
<path d="M17.5698 34.7101C16.8498 34.7101 16.2298 34.2201 16.0498 33.5301C15.3198 30.6201 14.5798 29.8201 11.8998 29.0201C11.2298 28.8201 10.7798 28.2201 10.7798 27.5201C10.7798 26.8201 11.2298 26.2201 11.8998 26.0201C14.5898 25.2201 15.3198 24.4201 16.0498 21.5101C16.2198 20.8101 16.8498 20.3301 17.5698 20.3301C18.2898 20.3301 18.9098 20.8201 19.0898 21.5101C19.8198 24.4201 20.5598 25.2201 23.2398 26.0201C23.9098 26.2201 24.3598 26.8201 24.3598 27.5201C24.3598 28.2201 23.9098 28.8201 23.2398 29.0201C20.5498 29.8201 19.8198 30.6201 19.0898 33.5301C18.9198 34.2301 18.2898 34.7101 17.5698 34.7101ZM14.2998 27.5201C15.8998 28.2601 16.8698 29.2701 17.5698 30.9401C18.2698 29.2701 19.2398 28.2601 20.8398 27.5201C19.2398 26.7801 18.2698 25.7701 17.5698 24.1001C16.8698 25.7701 15.8998 26.7801 14.2998 27.5201Z" fill="#BC9D82"/>
<path d="M40.9101 21.4501C40.1901 21.4501 39.5701 20.9601 39.3901 20.2701C38.6601 17.3601 37.9201 16.5601 35.2401 15.7601C34.5701 15.5601 34.1201 14.9601 34.1201 14.2601C34.1201 13.5601 34.5701 12.9601 35.2401 12.7601C37.9301 11.9601 38.6601 11.1601 39.3901 8.25007C39.5601 7.55007 40.1901 7.07007 40.9101 7.07007C41.6301 7.07007 42.2501 7.56007 42.4301 8.25007C43.1601 11.1601 43.9001 11.9601 46.5801 12.7601C47.2501 12.9601 47.7001 13.5601 47.7001 14.2601C47.7001 14.9601 47.2501 15.5601 46.5801 15.7601C43.8901 16.5601 43.1601 17.3601 42.4301 20.2701C42.2601 20.9701 41.6301 21.4501 40.9101 21.4501ZM37.6401 14.2601C39.2401 15.0001 40.2101 16.0101 40.9101 17.6801C41.6101 16.0101 42.5801 15.0001 44.1801 14.2601C42.5801 13.5201 41.6101 12.5101 40.9101 10.8401C40.2101 12.5101 39.2401 13.5201 37.6401 14.2601Z" fill="#BC9D82"/>
<path d="M64.31 34.7101C63.59 34.7101 62.97 34.2201 62.79 33.5301C62.06 30.6201 61.32 29.8201 58.64 29.0201C57.97 28.8201 57.52 28.2201 57.52 27.5201C57.52 26.8201 57.97 26.2201 58.64 26.0201C61.32 25.2201 62.06 24.4201 62.79 21.5101C62.96 20.8101 63.59 20.3301 64.31 20.3301C65.03 20.3301 65.65 20.8201 65.83 21.5101C66.56 24.4201 67.3 25.2201 69.98 26.0201C70.65 26.2201 71.1 26.8201 71.1 27.5201C71.1 28.2201 70.65 28.8201 69.98 29.0201C67.3 29.8201 66.56 30.6201 65.83 33.5301C65.66 34.2301 65.03 34.7101 64.31 34.7101ZM61.04 27.5201C62.64 28.2601 63.61 29.2701 64.31 30.9401C65.01 29.2701 65.98 28.2601 67.58 27.5201C65.98 26.7801 65.01 25.7701 64.31 24.1001C63.61 25.7701 62.64 26.7801 61.04 27.5201Z" fill="#BC9D82"/>
<path d="M8.66988 75.8701C8.08988 75.8701 7.62988 76.3401 7.62988 76.9101V80.2001C7.62988 80.7801 8.09988 81.2401 8.66988 81.2401C9.23988 81.2401 9.70988 80.7701 9.70988 80.2001V76.9101C9.70988 76.3301 9.23988 75.8701 8.66988 75.8701Z" fill="#BC9D82"/>
<path d="M24.3299 45.1299C24.2799 45.0799 24.2199 45.0399 24.1699 45.0099V43.5199C24.1699 39.8799 21.2099 36.9199 17.5699 36.9199C13.9299 36.9199 10.9699 39.8799 10.9699 43.5199V45.0099C10.9099 45.0399 10.8599 45.0899 10.8099 45.1299C8.78988 46.9999 7.62988 49.6599 7.62988 52.4099V72.6499C7.62988 73.2299 8.09988 73.6899 8.66988 73.6899C9.23988 73.6899 9.70988 73.2199 9.70988 72.6499V52.4099C9.70988 50.8999 10.1499 49.4199 10.9599 48.1599V57.9699C10.9599 60.9999 13.4199 63.4599 16.4499 63.4599H18.6699C21.6999 63.4599 24.1599 60.9999 24.1599 57.9699V48.1599C24.9699 49.4199 25.4099 50.8899 25.4099 52.4099V80.2099C25.4099 80.7899 25.8799 81.2499 26.4499 81.2499C27.0199 81.2499 27.4899 80.7799 27.4899 80.2099V52.4099C27.4899 49.6599 26.3299 46.9999 24.3199 45.1299H24.3299ZM22.0799 57.9699C22.0799 59.8499 20.5499 61.3699 18.6799 61.3699H16.4599C14.5799 61.3699 13.0599 59.8399 13.0599 57.9699V43.5199C13.0599 41.0299 15.0899 38.9999 17.5799 38.9999C20.0699 38.9999 22.0999 41.0299 22.0999 43.5199V57.9699H22.0799Z" fill="#BC9D82"/>
<path d="M17.7 40.25H17.56C16.98 40.25 16.52 40.72 16.52 41.29C16.52 41.86 16.99 42.33 17.56 42.33H17.7C18.28 42.33 18.74 41.86 18.74 41.29C18.74 40.72 18.27 40.25 17.7 40.25Z" fill="#BC9D82"/>
<path d="M19.93 43.5801H19.79C19.21 43.5801 18.75 44.0501 18.75 44.6201C18.75 45.1901 19.22 45.6601 19.79 45.6601H19.93C20.51 45.6601 20.97 45.1901 20.97 44.6201C20.97 44.0401 20.5 43.5801 19.93 43.5801Z" fill="#BC9D82"/>
<path d="M15.4798 43.5801H15.3398C14.7598 43.5801 14.2998 44.0501 14.2998 44.6201C14.2998 45.1901 14.7698 45.6601 15.3398 45.6601H15.4798C16.0598 45.6601 16.5198 45.1901 16.5198 44.6201C16.5198 44.0501 16.0498 43.5801 15.4798 43.5801Z" fill="#BC9D82"/>
<path d="M19.93 48.03H19.79C19.21 48.03 18.75 48.5 18.75 49.07C18.75 49.64 19.22 50.11 19.79 50.11H19.93C20.51 50.11 20.97 49.64 20.97 49.07C20.97 48.49 20.5 48.03 19.93 48.03Z" fill="#BC9D82"/>
<path d="M15.4798 48.03H15.3398C14.7598 48.03 14.2998 48.5 14.2998 49.07C14.2998 49.64 14.7698 50.11 15.3398 50.11H15.4798C16.0598 50.11 16.5198 49.64 16.5198 49.07C16.5198 48.5 16.0498 48.03 15.4798 48.03Z" fill="#BC9D82"/>
<path d="M19.93 52.48H19.79C19.21 52.48 18.75 52.95 18.75 53.52C18.75 54.09 19.22 54.56 19.79 54.56H19.93C20.51 54.56 20.97 54.09 20.97 53.52C20.97 52.94 20.5 52.48 19.93 52.48Z" fill="#BC9D82"/>
<path d="M15.4798 52.48H15.3398C14.7598 52.48 14.2998 52.95 14.2998 53.52C14.2998 54.09 14.7698 54.56 15.3398 54.56H15.4798C16.0598 54.56 16.5198 54.09 16.5198 53.52C16.5198 52.95 16.0498 52.48 15.4798 52.48Z" fill="#BC9D82"/>
<path d="M19.93 56.9199H19.79C19.21 56.9199 18.75 57.3899 18.75 57.9599C18.75 58.5299 19.22 58.9999 19.79 58.9999H19.93C20.51 58.9999 20.97 58.5299 20.97 57.9599C20.97 57.3799 20.5 56.9199 19.93 56.9199Z" fill="#BC9D82"/>
<path d="M15.4798 56.9199H15.3398C14.7598 56.9199 14.2998 57.3899 14.2998 57.9599C14.2998 58.5299 14.7698 58.9999 15.3398 58.9999H15.4798C16.0598 58.9999 16.5198 58.5299 16.5198 57.9599C16.5198 57.3899 16.0498 56.9199 15.4798 56.9199Z" fill="#BC9D82"/>
<path d="M49.81 56.9199C49.23 56.9199 48.77 57.3899 48.77 57.9599V80.1999C48.77 80.7799 49.24 81.2399 49.81 81.2399C50.38 81.2399 50.85 80.7699 50.85 80.1999V57.9599C50.85 57.3799 50.38 56.9199 49.81 56.9199Z" fill="#BC9D82"/>
<path d="M47.7602 32.97C47.6902 32.9 47.6002 32.84 47.5202 32.8V32.39C47.5202 28.75 44.5602 25.79 40.9202 25.79C37.2802 25.79 34.3202 28.75 34.3202 32.39V32.77C34.2602 32.81 34.2102 32.85 34.1602 32.89C32.1402 34.76 30.9902 37.42 30.9902 40.17V80.19C30.9902 80.77 31.4602 81.23 32.0302 81.23C32.6002 81.23 33.0702 80.76 33.0702 80.19V40.17C33.0702 38.66 33.5102 37.18 34.3202 35.92V46.84C34.3202 49.87 36.7802 52.33 39.8102 52.33H42.0302C45.0602 52.33 47.5202 49.87 47.5202 46.84V35.91C48.3302 37.16 48.7702 38.63 48.7702 40.17V53.65C48.7702 54.23 49.2402 54.69 49.8102 54.69C50.3802 54.69 50.8502 54.22 50.8502 53.65V40.17C50.8502 37.42 49.7502 34.86 47.7602 32.96V32.97ZM40.6102 27.89L36.4102 32.09C36.5602 29.84 38.3602 28.04 40.6102 27.89ZM36.4002 35.03C36.4002 35.03 36.4902 34.96 36.5302 34.92L43.0402 28.41C43.8302 28.83 44.4802 29.48 44.9002 30.27L36.4002 38.77V35.03ZM45.4302 46.85C45.4302 48.73 43.9002 50.25 42.0302 50.25H41.2102L45.4302 46.03V46.85ZM45.4302 43.1C45.4302 43.1 45.3502 43.16 45.3202 43.2L38.5102 50.01C37.6702 49.66 36.9902 48.99 36.6502 48.15L45.4302 39.37V43.11V43.1ZM45.4302 36.43L36.4002 45.45V41.7C36.4002 41.7 36.4902 41.63 36.5302 41.59L45.4302 32.69V36.43Z" fill="#BC9D82"/>
<path d="M71.0998 48.5401C71.0298 48.4701 70.9398 48.4101 70.8598 48.3701V47.9601C70.8598 44.3201 67.8998 41.3601 64.2598 41.3601C60.6198 41.3601 57.6598 44.3201 57.6598 47.9601V48.3801C57.5598 48.4301 57.4698 48.4901 57.3898 48.5701C55.4098 50.4601 54.3198 53.0101 54.3198 55.7501V80.2101C54.3198 80.7901 54.7898 81.2501 55.3598 81.2501C55.9298 81.2501 56.3998 80.7801 56.3998 80.2101V55.7501C56.3998 54.2101 56.8398 52.7501 57.6498 51.5001V62.4301C57.6498 65.4601 60.1098 67.9201 63.1398 67.9201H65.3598C68.3898 67.9201 70.8498 65.4601 70.8498 62.4301V51.5001C71.6598 52.7501 72.0998 54.2201 72.0998 55.7601V80.2201C72.0998 80.8001 72.5698 81.2601 73.1398 81.2601C73.7098 81.2601 74.1798 80.7901 74.1798 80.2201V55.7601C74.1798 53.0101 73.0798 50.4501 71.0898 48.5501L71.0998 48.5401ZM68.6498 46.9201C66.5698 46.9001 64.7798 45.4301 64.3098 43.4501C66.4198 43.4701 68.1798 44.9501 68.6498 46.9201ZM65.3698 65.8201H63.1498C61.3798 65.8201 59.9298 64.4701 59.7598 62.7401C61.7898 63.9401 64.0898 64.5701 66.4798 64.5701C67.0198 64.5701 67.5498 64.5401 68.0798 64.4701C67.4598 65.2901 66.4698 65.8201 65.3698 65.8201ZM68.7698 62.2501C68.0198 62.4101 67.2498 62.4901 66.4798 62.4901C64.0198 62.4901 61.6998 61.7101 59.7398 60.2301V56.7101C61.6598 58.1901 64.0298 59.0101 66.4798 59.0101C67.2498 59.0101 68.0198 58.9301 68.7698 58.7701V62.2501ZM68.7698 56.6301C68.0298 56.8301 67.2598 56.9301 66.4798 56.9301C63.9798 56.9301 61.5698 55.8701 59.8798 54.0301C59.8398 53.9801 59.7898 53.9401 59.7398 53.9001V48.6701C61.2098 51.5201 64.1698 53.4501 67.5898 53.4501C67.9898 53.4501 68.3798 53.4201 68.7698 53.3701V56.6301ZM68.7698 51.2601C68.3798 51.3301 67.9898 51.3601 67.5898 51.3601C63.9898 51.3601 61.0498 48.5601 60.8598 44.9801C61.2498 44.5301 61.7298 44.1601 62.2698 43.9001C62.9598 46.8301 65.6098 49.0001 68.6998 49.0001C68.7198 49.0001 68.7498 49.0001 68.7698 49.0001V51.2601Z" fill="#BC9D82"/>
</svg>
