<svg width="156" height="97" viewBox="0 0 156 97" fill="none" xmlns="http://www.w3.org/2000/svg">
<path d="M3.91504 79.5727C3.91504 79.5727 22.0447 60.6461 44.9299 65.9386C44.9299 65.9386 63.2935 69.1609 56.4678 87.9576C56.4678 87.9576 33.5566 102.64 3.91504 79.5727Z" fill="#D4ECDA"/>
<path d="M24.9725 23.1307C24.9725 23.1307 51.1753 23.5379 62.869 43.911C62.869 43.911 73.0036 59.5633 54.5794 67.3419C54.5794 67.3419 28.2295 60.5335 24.9639 23.1221L24.9725 23.1307Z" fill="#D4ECDA"/>
<path d="M77.6035 2.35913C77.6035 2.35913 96.1057 20.099 90.2674 41.7802C90.2674 41.7802 86.612 59.1996 67.9886 52.2266C67.9886 52.2266 53.8521 30.0344 77.6035 2.35913Z" fill="#D4ECDA"/>
<path d="M132.486 25.6169C132.486 25.6169 132.711 51.248 113.118 62.2141C113.118 62.2141 98.0977 71.7684 90.0767 53.5694C90.0767 53.5694 96.0881 27.947 132.477 25.6169H132.486Z" fill="#D4ECDA"/>
<path d="M151.179 78.7239C151.179 78.7239 133.794 96.7323 112.806 90.8248C112.806 90.8248 95.9325 87.0914 102.862 68.8664C102.862 68.8664 124.526 55.1804 151.17 78.7152L151.179 78.7239Z" fill="#D4ECDA"/>
<path d="M154.557 76.2118C146.034 67.775 135.267 62.4045 123.426 60.6721C121.918 60.4469 120.507 61.5036 120.29 63.0108C120.073 64.518 121.122 65.93 122.629 66.1465C132.313 67.5671 141.252 71.7162 148.563 78.1781C139.572 86.1212 128.017 90.5908 115.881 90.8161C104.343 91.0326 93.2037 87.3686 84.1606 80.4909C111.706 76.9481 133.205 53.3873 133.361 25.0537C133.361 24.3174 133.067 23.5985 132.555 23.0874C132.001 22.5244 131.256 22.2212 130.537 22.2732C118.809 22.3511 107.609 26.0152 98.1411 32.8842C96.9111 33.7851 96.6339 35.5175 97.5261 36.7475C97.9592 37.3452 98.6002 37.735 99.3278 37.8562C100.055 37.9688 100.792 37.7956 101.389 37.3625C109.125 31.7495 118.202 28.4925 127.731 27.9035C126.951 40.4375 121.529 52.1573 112.373 61.0272C104.447 68.7105 94.4597 73.5266 83.7361 74.9558C100.722 53.0062 99.3711 21.2424 79.5523 1.21573C79.0499 0.704666 78.331 0.410156 77.5861 0.410156C76.8411 0.410156 76.1222 0.704666 75.6198 1.21573C67.1829 9.73919 61.8124 20.5061 60.08 32.3472C59.8635 33.8544 60.9116 35.2663 62.4275 35.4828C63.9347 35.6994 65.3379 34.6426 65.5545 33.1441C66.975 23.4599 71.1242 14.5206 77.5861 7.20987C85.8323 16.5649 90.2327 28.6225 89.9988 41.3124C89.7996 52.2959 86.1268 62.7337 79.5697 71.3091C76.0615 43.9976 52.7779 22.5764 24.8081 22.2819C24.0545 22.2819 23.3529 22.559 22.8245 23.0788C22.3048 23.5985 22.0016 24.3088 22.0016 25.045V30.1816C22.0016 30.2683 22.0016 30.3636 22.019 30.4588C22.9804 39.8745 26.35 48.9437 31.7811 56.7049C32.656 57.9522 34.3797 58.2554 35.6357 57.3892C36.2421 56.9647 36.6492 56.3324 36.7704 55.6048C36.9004 54.8772 36.7358 54.1409 36.3113 53.5346C31.4519 46.5876 28.4116 38.4626 27.528 30.0344V27.9122C39.9234 28.7351 51.5046 34.1662 60.2706 43.2873C67.8499 51.1698 72.6054 61.0879 74.0259 71.7076C52.2322 54.9205 20.659 56.5749 0.814233 76.0126C0.29451 76.5496 0 77.2513 0 77.9875C0 78.7238 0.29451 79.4428 0.814233 79.9625L4.43497 83.5832C4.50427 83.6525 4.57357 83.7132 4.65153 83.7825C14.5436 91.8468 27.0516 96.2905 39.8628 96.2905H39.9667C49.9801 96.2905 59.7942 93.5966 68.361 88.5119C68.9933 88.1308 69.4437 87.5331 69.6343 86.8142C69.8162 86.0952 69.7122 85.3503 69.3311 84.718C68.9586 84.0856 68.3523 83.6352 67.6334 83.4446C66.9144 83.2627 66.1695 83.3667 65.5371 83.7478C57.8279 88.3214 48.9926 90.7381 39.9754 90.7554H39.8368C28.3509 90.7554 17.1422 86.7795 8.25494 79.5814L6.75641 78.0828C16.1114 69.8885 28.117 65.5055 40.7463 65.7047C53.826 65.9126 66.1002 71.0406 75.3079 80.1444C75.3079 80.1444 75.3079 80.1444 75.3166 80.1531C75.3166 80.1531 75.3253 80.1617 75.3339 80.1704C85.9016 90.6168 99.9601 96.3598 114.928 96.3598C129.914 96.3598 143.989 90.5995 154.557 80.1444C155.077 79.6247 155.38 78.9144 155.38 78.1781C155.38 77.4418 155.077 76.7316 154.557 76.2118Z" fill="#BC9D82"/>
</svg>
