<svg width="81" height="101" viewBox="0 0 81 101" fill="none" xmlns="http://www.w3.org/2000/svg">
<path d="M34.3 66.6099C34.3 62.6499 31.09 59.4299 27.14 59.4299C23.19 59.4299 19.98 62.6499 19.98 66.6099C19.98 70.5699 23.19 73.7899 27.14 73.7899C31.09 73.7899 34.3 70.5699 34.3 66.6099ZM28.82 68.6499H25.46C24.33 68.6499 23.42 67.7399 23.42 66.6099C23.42 65.4799 24.33 64.5699 25.46 64.5699H28.82C29.94 64.5699 30.86 65.4799 30.86 66.6099C30.86 67.7399 29.95 68.6499 28.82 68.6499Z" fill="#F5DE9D"/>
<path d="M53.4798 59.4399C49.5298 59.4399 46.3198 62.6599 46.3198 66.6199C46.3198 70.5799 49.5298 73.7999 53.4798 73.7999C57.4298 73.7999 60.6398 70.5799 60.6398 66.6199C60.6398 62.6599 57.4298 59.4399 53.4798 59.4399ZM55.1598 68.6599H51.7998C50.6698 68.6599 49.7598 67.7499 49.7598 66.6199C49.7598 65.4899 50.6698 64.5799 51.7998 64.5799H55.1598C56.2898 64.5799 57.1998 65.4899 57.1998 66.6199C57.1998 67.7499 56.2898 68.6599 55.1598 68.6599Z" fill="#F5DE9D"/>
<path d="M65.9299 19.8301C62.2599 10.6501 52.0599 4.08008 40.3099 4.08008C28.5599 4.08008 18.3599 10.6501 14.6899 19.8301C21.6599 14.7401 30.5899 11.6801 40.3099 11.6801C52.3399 11.6801 60.7599 16.0501 65.9299 19.8301Z" fill="#D4ECDA"/>
<path d="M43.0199 6.81009C50.4399 6.81009 57.2399 9.43009 62.1699 13.6701C57.2099 7.86009 49.2099 4.09009 40.3099 4.09009C28.5599 4.09009 18.3599 10.6601 14.6899 19.8401C16.8799 18.2401 19.2699 16.8401 21.8099 15.6801C26.7999 10.2801 34.5099 6.82009 43.0299 6.82009L43.0199 6.81009Z" fill="white"/>
<path d="M40.3098 36.69C46.4498 36.69 52.0998 39.37 56.5398 43.83C58.9298 40.75 60.1898 37.3 60.1898 33.74C60.1898 26.56 55.0098 19.88 46.6698 16.26C44.6098 15.94 42.4898 15.77 40.3198 15.77C20.3398 15.77 4.08984 29.93 4.08984 47.33C4.08984 55.72 7.84984 63.62 14.5398 69.5C14.5398 69.22 14.5398 68.94 14.5398 68.66C14.5398 51.03 26.1098 36.69 40.3298 36.69H40.3098Z" fill="#D4ECDA"/>
<path d="M6.79006 50.05C6.79006 32.65 23.0401 18.49 43.0201 18.49C45.1901 18.49 47.3101 18.66 49.3701 18.98C51.9301 20.09 54.1901 21.49 56.0901 23.1C53.7801 20.32 50.5601 17.96 46.6501 16.26C44.5901 15.94 42.4701 15.77 40.3001 15.77C20.3201 15.77 4.06006 29.93 4.06006 47.33C4.06006 55.63 7.74006 63.44 14.2901 69.3C9.45006 63.84 6.77006 57.12 6.77006 50.05H6.79006Z" fill="white"/>
<path d="M59.1299 20.3701C62.4199 24.2701 64.2599 28.8901 64.2599 33.7401C64.2599 38.5901 62.4899 43.0501 59.2399 46.9701C63.4999 52.6701 66.0999 60.3001 66.0999 68.6601C66.0999 68.9401 66.0999 69.2201 66.0999 69.5001C72.7899 63.6201 76.5499 55.7201 76.5499 47.3301C76.5499 35.9301 69.5699 25.9201 59.1399 20.3701H59.1299Z" fill="#D4ECDA"/>
<path d="M76.5101 48.7101C76.5301 48.2501 76.5501 47.7901 76.5501 47.3301C76.5501 35.9301 69.5701 25.9201 59.1401 20.3701C60.3301 21.7801 61.3201 23.2801 62.1101 24.8601C70.4901 30.3701 76.0401 38.9801 76.5101 48.7101Z" fill="white"/>
<path d="M40.3101 96.54C50.7401 96.54 59.4801 87.04 61.5601 74.43C59.5201 76.55 56.6501 77.87 53.4801 77.87C47.2901 77.87 42.2501 72.82 42.2501 66.61C42.2501 60.4 47.2901 55.35 53.4801 55.35C56.0201 55.35 58.3701 56.2 60.2601 57.64C59.0501 54.05 52.2701 40.77 40.3101 40.77C31.3801 40.77 23.6901 47.73 20.3601 57.64C22.2501 56.21 24.5901 55.35 27.1401 55.35C33.3401 55.35 38.3801 60.4 38.3801 66.61C38.3801 72.82 33.3401 77.87 27.1401 77.87C23.9701 77.87 21.1101 76.55 19.0601 74.43C21.1401 87.05 29.8701 96.54 40.3101 96.54ZM32.9501 81.62C33.9301 81.07 35.1701 81.41 35.7301 82.39C36.6601 84.05 38.4201 85.08 40.3101 85.08C42.2001 85.08 43.9601 84.05 44.8901 82.39C45.4401 81.41 46.6901 81.06 47.6601 81.62C48.6401 82.17 48.9901 83.42 48.4301 84.4C46.7801 87.34 43.6601 89.16 40.3001 89.16C36.9401 89.16 33.8201 87.34 32.1701 84.4C31.6201 83.42 31.9601 82.17 32.9401 81.62H32.9501Z" fill="#F7DFDF"/>
<path d="M22.2401 76.7399C21.0501 76.1599 19.9701 75.3699 19.0601 74.4299C21.1401 87.0499 29.8701 96.5399 40.3101 96.5399C40.7701 96.5399 41.2201 96.5199 41.6701 96.4799C32.4801 95.7499 24.8201 87.6499 22.2401 76.7399Z" fill="white"/>
<path d="M41.6599 40.83C41.2199 40.79 40.7699 40.77 40.3099 40.77C31.3799 40.77 23.6899 47.73 20.3599 57.64C21.3599 56.88 22.4999 56.28 23.7199 55.89C27.1399 47.41 33.8399 41.46 41.6499 40.83H41.6599Z" fill="white"/>
<path d="M71.3 24.56C70.54 17.92 67.05 11.79 61.43 7.23C55.66 2.57 48.16 0 40.31 0C32.46 0 24.96 2.57 19.19 7.23C13.57 11.78 10.08 17.91 9.31 24.56C3.5 30.74 0 38.68 0 47.33C0 58.2 5.48 68.3 15.04 75.11C17.45 89.66 27.86 100.63 40.3 100.63C52.74 100.63 63.15 89.65 65.56 75.1C75.13 68.29 80.6 58.2 80.6 47.33C80.6 38.68 77.1 30.74 71.28 24.56H71.3ZM66.09 69.5C66.09 69.22 66.09 68.94 66.09 68.66C66.09 60.3 63.48 52.67 59.23 46.97C62.48 43.05 64.25 38.41 64.25 33.74C64.25 29.07 62.41 24.27 59.12 20.37C69.55 25.92 76.53 35.93 76.53 47.33C76.53 55.72 72.77 63.62 66.08 69.5H66.09ZM14.53 69.5C7.84 63.62 4.08 55.72 4.08 47.33C4.08 29.93 20.33 15.77 40.31 15.77C42.48 15.77 44.6 15.94 46.66 16.26C55.01 19.89 60.18 26.57 60.18 33.74C60.18 37.3 58.92 40.75 56.53 43.83C52.09 39.37 46.45 36.69 40.3 36.69C26.08 36.69 14.51 51.03 14.51 68.66C14.51 68.94 14.51 69.22 14.51 69.5H14.53ZM14.69 19.83C18.36 10.65 28.56 4.08 40.31 4.08C52.06 4.08 62.26 10.65 65.93 19.83C60.76 16.06 52.34 11.68 40.31 11.68C30.59 11.68 21.66 14.74 14.69 19.83ZM53.48 73.79C49.53 73.79 46.32 70.57 46.32 66.61C46.32 62.65 49.53 59.43 53.48 59.43C57.43 59.43 60.64 62.65 60.64 66.61C60.64 70.57 57.43 73.79 53.48 73.79ZM27.14 73.79C23.19 73.79 19.98 70.57 19.98 66.61C19.98 62.65 23.19 59.43 27.14 59.43C31.09 59.43 34.3 62.65 34.3 66.61C34.3 70.57 31.09 73.79 27.14 73.79ZM27.14 77.87C33.34 77.87 38.38 72.82 38.38 66.61C38.38 60.4 33.34 55.35 27.14 55.35C24.6 55.35 22.25 56.2 20.36 57.64C23.69 47.73 31.38 40.77 40.31 40.77C52.27 40.77 59.05 54.05 60.26 57.64C58.37 56.21 56.03 55.35 53.48 55.35C47.29 55.35 42.25 60.4 42.25 66.61C42.25 72.82 47.29 77.87 53.48 77.87C56.65 77.87 59.51 76.55 61.56 74.43C59.48 87.05 50.75 96.54 40.31 96.54C29.87 96.54 21.14 87.04 19.06 74.43C21.1 76.55 23.97 77.87 27.14 77.87Z" fill="#BC9D82"/>
<path d="M40.3101 89.1701C43.6701 89.1701 46.7901 87.3501 48.4401 84.4101C48.9901 83.4301 48.6501 82.1801 47.6701 81.6301C46.6901 81.0701 45.4501 81.4201 44.9001 82.4001C43.9701 84.0601 42.2101 85.09 40.3201 85.09C38.4301 85.09 36.6701 84.0601 35.7401 82.4001C35.1901 81.4201 33.9401 81.0701 32.9601 81.6301C31.9801 82.1801 31.6301 83.4301 32.1901 84.4101C33.8501 87.3501 36.9601 89.1701 40.3201 89.1701H40.3101Z" fill="black"/>
<path d="M28.8199 64.5701H25.4599C24.3299 64.5701 23.4199 65.4801 23.4199 66.6101C23.4199 67.7401 24.3299 68.6501 25.4599 68.6501H28.8199C29.9399 68.6501 30.8599 67.7401 30.8599 66.6101C30.8599 65.4801 29.9499 64.5701 28.8199 64.5701Z" fill="black"/>
<path d="M55.1598 64.5701H51.7998C50.6698 64.5701 49.7598 65.4801 49.7598 66.6101C49.7598 67.7401 50.6698 68.6501 51.7998 68.6501H55.1598C56.2898 68.6501 57.1998 67.7401 57.1998 66.6101C57.1998 65.4801 56.2898 64.5701 55.1598 64.5701Z" fill="black"/>
<path d="M22.69 69.3399C22.69 68.1399 22.99 66.9999 23.51 66.0099C23.61 65.6799 23.8 65.3899 24.04 65.1499C25.34 63.3399 27.46 62.1599 29.85 62.1599C31.13 62.1599 32.33 62.4999 33.37 63.0899C32.14 60.9099 29.81 59.4399 27.14 59.4399C23.19 59.4399 19.98 62.6599 19.98 66.6199C19.98 69.2999 21.45 71.6299 23.62 72.8699C23.03 71.8299 22.69 70.6299 22.69 69.3399Z" fill="white"/>
<path d="M49.0401 69.3399C49.0401 68.1399 49.3401 66.9999 49.8601 66.0099C49.9601 65.6799 50.1501 65.3899 50.3901 65.1499C51.6901 63.3399 53.8101 62.1599 56.2001 62.1599C57.4801 62.1599 58.6801 62.4999 59.7201 63.0899C58.4901 60.9099 56.1601 59.4399 53.4901 59.4399C49.5401 59.4399 46.3301 62.6599 46.3301 66.6199C46.3301 69.2999 47.8001 71.6299 49.9701 72.8699C49.3801 71.8299 49.0401 70.6299 49.0401 69.3399Z" fill="white"/>
</svg>
