<svg width="63" height="100" viewBox="0 0 63 100" fill="none" xmlns="http://www.w3.org/2000/svg">
<path d="M31.2401 41.27C16.4101 41.27 4.3501 53.36 4.3501 68.22C4.3501 83.08 16.4101 95.17 31.2401 95.17C46.0701 95.17 58.1301 83.08 58.1301 68.22C58.1301 53.36 46.0701 41.27 31.2401 41.27ZM21.4201 87.69C16.1201 87.69 11.8001 83.37 11.8001 78.05C11.8001 72.73 16.1101 68.41 21.4201 68.41C26.7301 68.41 31.0401 72.73 31.0401 78.05C31.0401 83.37 26.7301 87.69 21.4201 87.69ZM21.4201 68.03C16.1201 68.03 11.8001 63.71 11.8001 58.39C11.8001 53.07 16.1101 48.75 21.4201 48.75C26.7301 48.75 31.0401 53.07 31.0401 58.39C31.0401 63.71 26.7301 68.03 21.4201 68.03ZM41.0601 48.75C46.3601 48.75 50.6801 53.07 50.6801 58.39C50.6801 63.71 46.3701 68.03 41.0601 68.03C35.7501 68.03 31.4401 63.71 31.4401 58.39C31.4401 53.07 35.7501 48.75 41.0601 48.75ZM41.0601 87.68C35.7601 87.68 31.4401 83.36 31.4401 78.04C31.4401 72.72 35.7501 68.4 41.0601 68.4C46.3701 68.4 50.6801 72.72 50.6801 78.04C50.6801 83.36 46.3701 87.68 41.0601 87.68Z" fill="#F7DFDF"/>
<path d="M6.26984 70.05C6.26984 55.19 18.3298 43.1 33.1598 43.1C39.8298 43.1 45.9498 45.55 50.6498 49.6C45.7498 44.47 38.8598 41.27 31.2298 41.27C16.3998 41.27 4.33984 53.36 4.33984 68.22C4.33984 76.38 7.97984 83.7 13.7098 88.65C13.6898 88.63 13.6798 88.61 13.6598 88.59C9.07984 83.76 6.25984 77.22 6.25984 70.05H6.26984Z" fill="white"/>
<path d="M26.7401 58.4001C26.7401 55.4601 24.3501 53.0701 21.4201 53.0701C18.4901 53.0701 16.1001 55.4601 16.1001 58.4001C16.1001 61.3401 18.4901 63.7301 21.4201 63.7301C24.3501 63.7301 26.7401 61.3401 26.7401 58.4001Z" fill="#D4ECDA"/>
<path d="M26.7401 78.05C26.7401 75.11 24.3501 72.72 21.4201 72.72C18.4901 72.72 16.1001 75.11 16.1001 78.05C16.1001 80.99 18.4901 83.38 21.4201 83.38C24.3501 83.38 26.7401 80.99 26.7401 78.05Z" fill="#D4ECDA"/>
<path d="M35.7402 58.4001C35.7402 61.3401 38.1302 63.7301 41.0602 63.7301C43.9902 63.7301 46.3802 61.3401 46.3802 58.4001C46.3802 55.4601 43.9902 53.0701 41.0602 53.0701C38.1302 53.0701 35.7402 55.4601 35.7402 58.4001Z" fill="#D4ECDA"/>
<path d="M41.0602 72.72C38.1302 72.72 35.7402 75.11 35.7402 78.05C35.7402 80.99 38.1302 83.38 41.0602 83.38C43.9902 83.38 46.3802 80.99 46.3802 78.05C46.3802 75.11 43.9902 72.72 41.0602 72.72Z" fill="#D4ECDA"/>
<path d="M31.18 36.9701C38.53 36.9701 45.42 35.1701 50.56 31.8901C55.4 28.8101 58.07 24.8101 58.07 20.6401C58.07 16.4701 55.4 12.4701 50.56 9.39006C45.42 6.12006 38.53 4.31006 31.18 4.31006C23.83 4.31006 16.94 6.11006 11.8 9.39006C6.96004 12.4701 4.29004 16.4701 4.29004 20.6401C4.29004 24.8101 6.96004 28.8101 11.8 31.8901C16.94 35.1601 23.83 36.9701 31.18 36.9701ZM9.30004 20.6401C9.30004 13.3701 18.92 7.67006 31.19 7.67006C32.38 7.67006 33.34 8.63006 33.34 9.82006C33.34 11.0101 32.38 11.9701 31.19 11.9701C20.82 11.9701 13.6 16.5301 13.6 20.6301C13.6 21.8201 12.64 22.7801 11.45 22.7801C10.26 22.7801 9.30004 21.8201 9.30004 20.6301V20.6401Z" fill="#F7DFDF"/>
<path d="M7.16004 23.5101C7.16004 20.0601 8.98004 16.7401 12.34 13.9501C14.98 11.3001 19.18 9.29006 24.24 8.32006C27.32 7.58006 30.63 7.18006 34.05 7.18006C41.4 7.18006 48.29 8.98006 53.43 12.2601C54.18 12.7401 54.88 13.2401 55.52 13.7601C54.29 12.1801 52.62 10.7001 50.56 9.39006C45.42 6.12006 38.53 4.31006 31.18 4.31006C23.83 4.31006 16.94 6.11006 11.8 9.39006C6.96004 12.4701 4.29004 16.4701 4.29004 20.6401C4.29004 24.1701 6.20004 27.5601 9.71004 30.3901C8.04004 28.2501 7.16004 25.9101 7.16004 23.5101Z" fill="white"/>
<path d="M43.68 39.57C47.05 38.6 50.16 37.25 52.86 35.53C58.99 31.63 62.36 26.34 62.36 20.64C62.36 14.94 58.99 9.65 52.86 5.75C47.04 2.04 39.34 0 31.18 0C23.02 0 15.33 2.04 9.5 5.75C3.37 9.65 0 14.94 0 20.64C0 26.34 3.37 31.63 9.5 35.53C12.22 37.26 15.35 38.62 18.75 39.59C7.75 44.42 0.05 55.44 0.05 68.22C0.05 85.45 14.04 99.48 31.23 99.48C48.42 99.48 62.41 85.46 62.41 68.22C62.41 55.42 54.69 44.39 43.67 39.56L43.68 39.57ZM31.23 95.18C16.4 95.18 4.34 83.09 4.34 68.23C4.34 53.37 16.4 41.28 31.23 41.28C46.06 41.28 58.12 53.37 58.12 68.23C58.12 83.09 46.06 95.18 31.23 95.18ZM4.3 20.64C4.3 16.47 6.97 12.47 11.81 9.39C16.95 6.12 23.84 4.31 31.19 4.31C38.54 4.31 45.43 6.11 50.57 9.39C55.41 12.47 58.08 16.47 58.08 20.64C58.08 24.81 55.41 28.81 50.57 31.89C45.43 35.16 38.54 36.97 31.19 36.97C23.84 36.97 16.95 35.17 11.81 31.89C6.97 28.81 4.3 24.81 4.3 20.64Z" fill="#BC9D82"/>
<path d="M13.59 20.6399C13.59 16.5399 20.82 11.9799 31.18 11.9799C32.37 11.9799 33.33 11.0199 33.33 9.82993C33.33 8.63993 32.37 7.67993 31.18 7.67993C18.91 7.67993 9.29004 13.3799 9.29004 20.6499C9.29004 21.8399 10.25 22.7999 11.44 22.7999C12.63 22.7999 13.59 21.8399 13.59 20.6499V20.6399Z" fill="#BC9D82"/>
<path d="M21.4198 48.76C16.1198 48.76 11.7998 53.08 11.7998 58.4C11.7998 63.72 16.1098 68.04 21.4198 68.04C26.7298 68.04 31.0398 63.72 31.0398 58.4C31.0398 53.08 26.7298 48.76 21.4198 48.76ZM16.0998 58.4C16.0998 55.46 18.4898 53.07 21.4198 53.07C24.3498 53.07 26.7398 55.46 26.7398 58.4C26.7398 61.34 24.3498 63.73 21.4198 63.73C18.4898 63.73 16.0998 61.34 16.0998 58.4Z" fill="#BC9D82"/>
<path d="M21.4198 68.4099C16.1198 68.4099 11.7998 72.7299 11.7998 78.0499C11.7998 83.3699 16.1098 87.6899 21.4198 87.6899C26.7298 87.6899 31.0398 83.3699 31.0398 78.0499C31.0398 72.7299 26.7298 68.4099 21.4198 68.4099ZM16.0998 78.0499C16.0998 75.1099 18.4898 72.7199 21.4198 72.7199C24.3498 72.7199 26.7398 75.1099 26.7398 78.0499C26.7398 80.9899 24.3498 83.3799 21.4198 83.3799C18.4898 83.3799 16.0998 80.9899 16.0998 78.0499Z" fill="#BC9D82"/>
<path d="M41.0599 68.03C46.3599 68.03 50.6799 63.71 50.6799 58.39C50.6799 53.07 46.3699 48.75 41.0599 48.75C35.7499 48.75 31.4399 53.07 31.4399 58.39C31.4399 63.71 35.7499 68.03 41.0599 68.03ZM46.3799 58.39C46.3799 61.33 43.9899 63.72 41.0599 63.72C38.1299 63.72 35.7399 61.33 35.7399 58.39C35.7399 55.45 38.1299 53.06 41.0599 53.06C43.9899 53.06 46.3799 55.45 46.3799 58.39Z" fill="#BC9D82"/>
<path d="M41.0599 68.4099C35.7599 68.4099 31.4399 72.7299 31.4399 78.0499C31.4399 83.3699 35.7499 87.6899 41.0599 87.6899C46.3699 87.6899 50.6799 83.3699 50.6799 78.0499C50.6799 72.7299 46.3699 68.4099 41.0599 68.4099ZM41.0599 83.3799C38.1299 83.3799 35.7399 80.9899 35.7399 78.0499C35.7399 75.1099 38.1299 72.7199 41.0599 72.7199C43.9899 72.7199 46.3799 75.1099 46.3799 78.0499C46.3799 80.9899 43.9899 83.3799 41.0599 83.3799Z" fill="#BC9D82"/>
<path d="M18.1001 60.4101C18.1001 57.4701 20.4901 55.0801 23.4201 55.0801C24.3701 55.0801 25.2701 55.3401 26.0401 55.7801C25.1201 54.1701 23.4001 53.0701 21.4201 53.0701C18.4901 53.0701 16.1001 55.4601 16.1001 58.4001C16.1001 60.3901 17.1901 62.1201 18.8001 63.0401C18.3601 62.2601 18.1001 61.3701 18.1001 60.4101Z" fill="white"/>
<path d="M18.1001 80.06C18.1001 77.12 20.4901 74.73 23.4201 74.73C24.3701 74.73 25.2701 74.99 26.0401 75.43C25.1201 73.82 23.4001 72.72 21.4201 72.72C18.4901 72.72 16.1001 75.11 16.1001 78.05C16.1001 80.04 17.1901 81.77 18.8001 82.69C18.3601 81.91 18.1001 81.02 18.1001 80.06Z" fill="white"/>
<path d="M37.7402 80.06C37.7402 77.12 40.1302 74.73 43.0602 74.73C44.0102 74.73 44.9102 74.99 45.6802 75.43C44.7602 73.82 43.0402 72.72 41.0602 72.72C38.1302 72.72 35.7402 75.11 35.7402 78.05C35.7402 80.04 36.8302 81.77 38.4402 82.69C38.0002 81.91 37.7402 81.02 37.7402 80.06Z" fill="white"/>
<path d="M37.7402 60.4101C37.7402 57.4701 40.1302 55.0801 43.0602 55.0801C44.0102 55.0801 44.9102 55.3401 45.6802 55.7801C44.7602 54.1701 43.0402 53.0701 41.0602 53.0701C38.1302 53.0701 35.7402 55.4601 35.7402 58.4001C35.7402 60.3901 36.8302 62.1201 38.4402 63.0401C38.0002 62.2601 37.7402 61.3701 37.7402 60.4101Z" fill="white"/>
</svg>
