<svg width="78" height="83" viewBox="0 0 78 83" fill="none" xmlns="http://www.w3.org/2000/svg">
<path d="M65.1498 37.6599H62.5098V45.3799H70.5498C69.5298 42.7099 67.8498 39.6899 65.1498 37.6599Z" fill="#D4ECDA"/>
<path d="M58.4401 45.3799V37.6599H55.8001C53.0801 39.6999 51.4001 42.7099 50.3901 45.3799H58.4401Z" fill="#D4ECDA"/>
<path d="M58.4401 37.7199V37.6599H55.8001C53.0801 39.6999 51.4001 42.7099 50.3901 45.3799H53.1101C54.1201 42.7399 55.7701 39.7599 58.4501 37.7199H58.4401Z" fill="white"/>
<path d="M72.0502 51.17C72.0302 51.04 71.9502 50.4 71.7502 49.46H49.1802C48.9802 50.4 48.9002 51.03 48.8902 51.17L47.2902 74.17C47.2102 75.19 47.2502 76.53 47.8802 77.21C48.3502 77.71 49.2002 77.95 50.5702 77.95H70.3402C71.7102 77.95 72.5702 77.72 73.0302 77.21C73.6602 76.53 73.7002 75.18 73.6302 74.18L72.0302 51.17H72.0502Z" fill="#D4ECDA"/>
<path d="M50.0102 74.16L51.6102 51.16C51.6302 51.03 51.7002 50.39 51.9002 49.45H49.1802C48.9802 50.39 48.9002 51.02 48.8902 51.16L47.2902 74.16C47.2102 75.18 47.2502 76.5199 47.8802 77.1999C48.3502 77.6999 49.2002 77.94 50.5702 77.94H53.2902C51.9202 77.94 51.0602 77.7099 50.6002 77.1999C49.9702 76.5199 49.9302 75.17 50.0102 74.16Z" fill="white"/>
<path d="M65.2602 6.43009C65.2602 5.14009 64.2102 4.09009 62.9202 4.09009H58.0202C56.7302 4.09009 55.6802 5.14009 55.6802 6.43009V33.5801H65.2602V6.43009Z" fill="#F7DFDF"/>
<path d="M58.4002 9.15009C58.4002 7.86009 59.4502 6.81009 60.7402 6.81009H65.2602V6.43009C65.2602 5.14009 64.2102 4.09009 62.9202 4.09009H58.0202C56.7302 4.09009 55.6802 5.14009 55.6802 6.43009V33.5801H58.4002V9.15009Z" fill="white"/>
<path d="M21.4502 44.49V49.5H31.6802C30.4502 47.5 28.8802 45.78 27.0302 44.49H21.4502Z" fill="#D4ECDA"/>
<path d="M7.00977 49.5H17.3798V44.49H11.6698C9.81977 45.78 8.23977 47.5 7.01977 49.5H7.00977Z" fill="#D4ECDA"/>
<path d="M14.3798 44.49H11.6598C9.80977 45.78 8.22977 47.5 7.00977 49.5H9.72976C10.9598 47.5 12.5298 45.78 14.3798 44.49Z" fill="white"/>
<path d="M24.8899 16.3601C24.8899 14.8201 23.6399 13.5801 22.1099 13.5801H16.7199C15.1899 13.5801 13.9399 14.8301 13.9399 16.3601V40.4001H24.8899V16.3601Z" fill="#F7DFDF"/>
<path d="M16.6502 19.0901C16.6502 17.5501 17.9002 16.3101 19.4302 16.3101H24.8202C24.8202 16.3101 24.8602 16.3101 24.8802 16.3101C24.8502 14.8001 23.6202 13.5801 22.1002 13.5801H16.7102C15.1802 13.5801 13.9302 14.8301 13.9302 16.3601V40.4001H16.6502V19.0801V19.0901Z" fill="white"/>
<path d="M21.4498 53.5801V71.4101C21.4498 72.5401 20.5398 73.4501 19.4098 73.4501C18.2798 73.4501 17.3698 72.5401 17.3698 71.4101V53.5801H5.12982C4.43982 55.6701 4.06982 57.9201 4.06982 60.2301C4.06982 65.3301 5.88982 70.2401 9.05982 73.6901C9.58982 74.2701 9.73982 75.1101 9.44982 75.8401C9.37982 76.0201 9.33982 76.2201 9.33982 76.4101C9.33982 77.2501 10.0298 77.9401 10.8698 77.9401H27.8198C28.6598 77.9401 29.3498 77.2501 29.3498 76.4101C29.3498 76.2201 29.3098 76.0201 29.2398 75.8401C28.9498 75.1101 29.0998 74.2701 29.6298 73.6901C32.7998 70.2401 34.6198 65.3301 34.6198 60.2301C34.6198 57.9101 34.2498 55.6601 33.5598 53.5801H21.4498Z" fill="#D4ECDA"/>
<path d="M12.0598 76.4101C12.0598 76.2201 12.0998 76.0201 12.1698 75.8401C12.4598 75.1101 12.3098 74.2701 11.7798 73.6901C8.60982 70.2401 6.78982 65.3301 6.78982 60.2301C6.78982 57.9101 7.15982 55.6601 7.84982 53.5801H5.12982C4.43982 55.6701 4.06982 57.9201 4.06982 60.2301C4.06982 65.3301 5.88982 70.2401 9.05982 73.6901C9.58982 74.2701 9.73982 75.1101 9.44982 75.8401C9.37982 76.0201 9.33982 76.2201 9.33982 76.4101C9.33982 77.2501 10.0298 77.9401 10.8698 77.9401H13.5898C12.7498 77.9401 12.0598 77.2501 12.0598 76.4101Z" fill="white"/>
<path d="M77.7099 73.88C77.7099 73.88 76.0999 50.8 76.0999 50.78C76.0599 50.36 75.0899 41.57 69.3099 35.88C69.3199 35.8 69.3299 35.71 69.3299 35.62V6.43C69.3299 2.89 66.4499 0 62.9199 0H58.0199C54.4799 0 51.6099 2.88 51.6099 6.43V35.62C51.6099 35.71 51.6099 35.79 51.6299 35.88C45.8599 41.57 44.8899 50.36 44.8399 50.78C44.8399 50.8 43.2299 73.87 43.2299 73.87C43.0299 76.51 43.5899 78.57 44.8999 79.99C46.7899 82.04 49.6499 82.04 50.5799 82.04H70.3499C71.2899 82.04 74.1399 82.04 76.0299 79.99C77.3399 78.57 77.8999 76.51 77.6999 73.89L77.7099 73.88ZM73.0499 77.21C72.5799 77.71 71.7299 77.95 70.3599 77.95H50.5899C49.2199 77.95 48.3599 77.72 47.8999 77.21C47.2699 76.53 47.2299 75.18 47.3099 74.17L48.9099 51.17C48.9299 51.04 48.9999 50.4 49.1999 49.46H71.7699C71.9699 50.4 72.0499 51.04 72.0699 51.17L73.6699 74.18C73.7499 75.18 73.7099 76.53 73.0699 77.21H73.0499ZM55.6799 6.43C55.6799 5.14 56.7299 4.09 58.0199 4.09H62.9199C64.2099 4.09 65.2599 5.14 65.2599 6.43V33.58H55.6799V6.43ZM62.5099 45.38V37.66H65.1499C67.8599 39.69 69.5299 42.7 70.5499 45.38H62.5099ZM55.7899 37.66H58.4299V45.38H50.3799C51.3999 42.71 53.0699 39.7 55.7899 37.66Z" fill="#BC9D82"/>
<path d="M36.93 50.95C36.89 50.83 33.87 43.76 28.96 40.88V16.37C28.96 12.58 25.89 9.5 22.11 9.5H16.72C12.94 9.5 9.87 12.58 9.87 16.37V40.79C4.23 44.14 1.8 50.83 1.76 50.95C0.62 53.82 0 56.98 0 60.24C0 66.04 1.88 71.45 5.32 75.61C5.28 75.88 5.26 76.14 5.26 76.41C5.26 79.51 7.77 82.03 10.86 82.03H27.81C30.9 82.03 33.41 79.51 33.41 76.41C33.41 76.14 33.39 75.87 33.35 75.61C36.79 71.45 38.67 66.04 38.67 60.24C38.67 56.98 38.05 53.82 36.91 50.95H36.93ZM29.63 73.7C29.1 74.28 28.95 75.12 29.24 75.85C29.31 76.03 29.35 76.23 29.35 76.42C29.35 77.26 28.66 77.95 27.82 77.95H10.87C10.03 77.95 9.34 77.26 9.34 76.42C9.34 76.23 9.38 76.03 9.45 75.85C9.74 75.12 9.59 74.28 9.06 73.7C5.89 70.25 4.07 65.34 4.07 60.24C4.07 57.92 4.44 55.67 5.13 53.59H17.38V71.42C17.38 72.55 18.29 73.46 19.42 73.46C20.55 73.46 21.46 72.55 21.46 71.42V53.59H33.57C34.26 55.68 34.63 57.93 34.63 60.24C34.63 65.34 32.81 70.25 29.64 73.7H29.63ZM13.94 16.36C13.94 14.82 15.19 13.58 16.72 13.58H22.11C23.64 13.58 24.89 14.83 24.89 16.36V40.4H13.94V16.36ZM31.68 49.5H21.45V44.49H27.03C28.88 45.78 30.46 47.5 31.68 49.5ZM17.38 44.49V49.5H7.01C8.24 47.5 9.81 45.78 11.66 44.49H17.37H17.38Z" fill="#BC9D82"/>
</svg>
