<svg width="56" height="95" viewBox="0 0 56 95" fill="none" xmlns="http://www.w3.org/2000/svg">
<path d="M13.1201 17.8999C14.4201 22.8099 20.5601 26.5299 27.9301 26.5299C35.3001 26.5299 41.4401 22.7999 42.7401 17.8999H13.1201Z" fill="#D4ECDA"/>
<path d="M15.8299 17.8999H13.1099C14.4099 22.8099 20.5499 26.5299 27.9199 26.5299C28.3799 26.5299 28.8299 26.5199 29.2799 26.4899C22.5199 26.0599 17.0399 22.4999 15.8299 17.8999Z" fill="white"/>
<path d="M48.3901 4.08008H7.47008C5.60008 4.08008 4.08008 5.61008 4.08008 7.48008V10.4101C4.08008 12.2901 5.60008 13.8101 7.47008 13.8101H48.3901C50.2601 13.8101 51.7901 12.2801 51.7901 10.4101V7.48008C51.7901 5.60008 50.2701 4.08008 48.3901 4.08008ZM45.7801 10.9901H10.0801C8.96008 10.9901 8.04008 10.0801 8.04008 8.95008C8.04008 7.82008 8.95008 6.91008 10.0801 6.91008H45.7801C46.9101 6.91008 47.8201 7.82008 47.8201 8.95008C47.8201 10.0801 46.9101 10.9901 45.7801 10.9901Z" fill="#F7DFDF"/>
<path d="M6.79008 12.8701V9.94009C6.79008 8.06009 8.31008 6.54009 10.1901 6.54009H51.1101C51.3001 6.54009 51.4801 6.56009 51.6601 6.59009C51.2601 5.15009 49.9501 4.09009 48.3901 4.09009H7.47008C5.60008 4.09009 4.08008 5.62009 4.08008 7.49009V10.4201C4.08008 12.1101 5.31008 13.5101 6.92008 13.7701C6.84008 13.4801 6.79008 13.1801 6.79008 12.8701Z" fill="white"/>
<path d="M31.9498 68.52C30.0298 55.69 30.4098 37.03 30.6198 30.48C29.7298 30.57 28.8398 30.62 27.9298 30.62C27.0198 30.62 26.1198 30.57 25.2398 30.48C25.4498 37.02 25.8298 55.68 23.9098 68.52C21.8198 82.52 23.8398 87.3 25.2298 88.9C25.9298 89.71 26.7898 90.08 27.9098 90.07C27.9098 90.07 27.9198 90.07 27.9298 90.07C29.0598 90.09 29.9098 89.71 30.6098 88.9C31.9998 87.3 34.0198 82.52 31.9298 68.52H31.9498Z" fill="#D4ECDA"/>
<path d="M27.58 88.9C26.19 87.3 24.17 82.52 26.26 68.52C28.16 55.78 27.8 37.29 27.59 30.62C26.8 30.61 26.01 30.56 25.23 30.48C25.44 37.02 25.82 55.68 23.9 68.52C21.81 82.52 23.83 87.3 25.22 88.9C25.92 89.71 26.78 90.08 27.9 90.07C27.9 90.07 27.91 90.07 27.92 90.07C27.92 90.07 27.92 90.07 27.93 90.07C28.35 90.07 28.73 90.02 29.08 89.91C28.5 89.73 28 89.4 27.56 88.89L27.58 88.9Z" fill="white"/>
<path d="M45.78 6.90991H10.08C8.96004 6.90991 8.04004 7.81991 8.04004 8.94991C8.04004 10.0799 8.95004 10.9899 10.08 10.9899H45.78C46.91 10.9899 47.82 10.0799 47.82 8.94991C47.82 7.81991 46.91 6.90991 45.78 6.90991Z" fill="black"/>
<path d="M48.39 0H7.47C3.35 0 0 3.36 0 7.49V10.42C0 14.55 3.35 17.91 7.47 17.91H8.95C9.5 21.2 11.47 24.21 14.62 26.54C16.51 27.93 18.72 28.99 21.12 29.68C21.3 35.03 21.81 54.91 19.87 67.91C18.09 79.82 18.85 87.79 22.14 91.58C23.6 93.27 25.58 94.16 27.85 94.16C27.87 94.16 27.89 94.16 27.91 94.16C27.93 94.16 27.95 94.16 27.97 94.16C30.25 94.16 32.22 93.27 33.68 91.58C36.97 87.79 37.73 79.83 35.95 67.91C34.01 54.91 34.52 35.02 34.7 29.68C37.1 28.99 39.31 27.93 41.2 26.54C44.36 24.21 46.32 21.2 46.87 17.91H48.35C52.47 17.91 55.82 14.55 55.82 10.42V7.49C55.82 3.36 52.47 0 48.35 0L48.39 0ZM51.79 10.42C51.79 12.3 50.27 13.82 48.39 13.82H7.47C5.6 13.82 4.08 12.29 4.08 10.42V7.49C4.08 5.61 5.6 4.09 7.47 4.09H48.39C50.26 4.09 51.79 5.62 51.79 7.49V10.42ZM27.95 90.07C27.95 90.07 27.94 90.07 27.93 90.07C26.81 90.07 25.95 89.71 25.25 88.9C23.86 87.3 21.84 82.52 23.93 68.52C25.85 55.69 25.47 37.03 25.26 30.48C26.15 30.57 27.04 30.62 27.95 30.62C28.86 30.62 29.76 30.57 30.64 30.48C30.43 37.03 30.05 55.69 31.97 68.52C34.06 82.52 32.04 87.3 30.65 88.9C29.95 89.71 29.09 90.09 27.97 90.07H27.95ZM27.93 26.54C20.56 26.54 14.42 22.81 13.12 17.91H42.74C41.44 22.82 35.3 26.54 27.93 26.54Z" fill="#BC9D82"/>
</svg>
